<svg width="159" height="22" viewBox="0 0 159 22" fill="none" xmlns="http://www.w3.org/2000/svg">
<path d="M9.85156 10.0742C8.83203 9.28906 3.83984 5.86719 2.59766 4.39062L1.21484 5.58594C1.4375 5.9375 1.69531 6.16016 2.01172 6.45312C3.34766 7.69531 6.20703 9.78125 7.68359 10.8359C6.03125 12.1602 2.97266 14.6211 0.921875 15.7227L1.71875 17.3516C3.80469 16.5898 8.72656 12.2539 9.85156 11.4453V10.0742ZM14.1172 10.8242C14.1172 8.02344 15.3125 6.86328 17.9023 6.86328C19.7773 6.86328 20.1172 7.97656 20.2461 8.45703L22.0508 7.75391C21.793 7.14453 21.4297 6.44141 20.7148 5.89062C20.0117 5.35156 19.1445 5.07031 18.0312 5.07031C14.3398 5.07031 12.2539 6.52344 12.2539 10.8242C12.2539 13.1562 12.7227 14.9609 14.2461 16.1445C15.3711 16.9883 16.8125 17.082 18.0312 17.082C21.3008 17.082 22.3906 15.0195 22.7773 14.5273L21.3008 13.4609C20.6914 14.4805 19.8125 15.2422 17.9844 15.2422H17.832C16.543 15.2422 14.1172 15.1602 14.1172 10.8242ZM31.5078 14.4805C30.9219 14.9727 30.4062 15.1602 29.5156 15.1719C27.5586 15.1719 26.5391 13.7891 26.5391 11.5039C26.5391 8.64453 27.2656 6.71094 29.7031 6.71094C31.7773 6.71094 32.5273 8.42188 32.5508 10.5781V10.7891C32.5508 12.5234 32.2695 13.7656 31.5078 14.4805ZM29.4922 16.9883H29.5156C33.2891 16.9883 34.4141 13.9766 34.4141 10.6367C34.4141 9.51172 34.2031 8.1875 33.7227 7.26172C32.9023 5.71484 31.6133 4.90625 29.3047 4.90625C25.8828 4.90625 24.6875 8.14062 24.6875 11.5625C24.6875 14.8438 26.3047 16.9766 29.4922 16.9883ZM38.9727 11.3984C38.9727 8.08203 39.7227 6.82812 41.6328 6.82812C42.6992 6.82812 43.9766 7.68359 44.5859 8.28125V13.4023C43.7539 14.7383 43.1914 15.2773 41.5859 15.2773C39.5938 15.2773 38.9727 13.7891 38.9727 11.3984ZM46.4258 13.8711L46.4375 3.5C46.4375 2.43359 46.3789 1.32031 46.2734 0.464844L44.3984 0.558594C44.4805 1.35547 44.5742 2.35156 44.5742 3.45312V5.87891C44.0117 5.51562 42.9688 5.01172 41.7969 5.01172C38.0117 5.01172 37.1211 7.68359 37.1211 11.6211C37.1211 14.7617 38.3633 17.082 41.5859 17.082C42.8984 17.082 43.8477 16.6719 44.5859 16.0156C44.5977 16.5078 44.6562 16.7656 44.7148 17.1406L46.6367 16.918C46.5195 16.1562 46.4258 15.1484 46.4258 14.1758V13.8711ZM51.4531 10.2031C51.4648 8.39844 52.6719 6.81641 54.6641 6.81641C56.2578 6.81641 57.4531 8.01172 57.6406 9.89844C55.9766 10.0859 52.9648 10.1914 51.4531 10.2031ZM54.6523 5.03516C51.3359 5.03516 49.6016 7.60156 49.6016 10.9531C49.6016 14.6211 51.3125 17.1172 54.8047 17.1172C57.5938 17.1172 58.9297 15.5703 59.4102 15.043L57.9688 13.7656C57.5117 14.3984 56.5273 15.3242 54.8516 15.3242C52.4609 15.3242 51.4531 13.7891 51.4531 11.9961C53.5391 11.9727 56.2109 11.832 59.4922 11.6094C59.5039 11.5156 59.5039 11.3398 59.5039 11.1055C59.5039 9.48828 59.0703 5.03516 54.6523 5.03516ZM65.9727 0.324219C64.7539 0.324219 63.3945 0.347656 62.082 0.652344L62.4102 2.32812C63.125 2.16406 63.9688 2.12891 64.6367 2.12891C64.9883 2.12891 65.3047 2.14062 65.5039 2.14062L65.5391 14.5625C65.5391 15.2539 65.6328 16.1914 66.6289 16.7422C67.1445 17.0234 68.0352 17.1875 69.0312 17.1875C70.4844 17.1875 72.1602 16.8359 73.168 16.0039L72.3711 14.668C71.5625 15.2773 70.1094 15.5234 69.0195 15.5234C67.9414 15.5234 67.4258 15.4766 67.3672 14.5156C67.3672 14.5156 67.332 3.52344 67.332 0.324219H65.9727ZM81.1953 14.4805C80.6094 14.9727 80.0938 15.1602 79.2031 15.1719C77.2461 15.1719 76.2266 13.7891 76.2266 11.5039C76.2266 8.64453 76.9531 6.71094 79.3906 6.71094C81.4648 6.71094 82.2148 8.42188 82.2383 10.5781V10.7891C82.2383 12.5234 81.957 13.7656 81.1953 14.4805ZM79.1797 16.9883H79.2031C82.9766 16.9883 84.1016 13.9766 84.1016 10.6367C84.1016 9.51172 83.8906 8.1875 83.4102 7.26172C82.5898 5.71484 81.3008 4.90625 78.9922 4.90625C75.5703 4.90625 74.375 8.14062 74.375 11.5625C74.375 14.8438 75.9922 16.9766 79.1797 16.9883ZM88.7305 17.8906C88.7305 17.1523 89.0586 16.4492 89.7148 16.1914C91.4258 16.168 92.0938 16.168 92.1992 16.168C93.6172 16.168 95.3633 16.2969 95.3633 17.293C95.3633 19.2383 93.7344 19.7188 92.3867 19.7188H91.1562C89.6094 19.7188 88.7305 19.3672 88.7305 17.8906ZM91.5312 10.4727C90.0078 10.4727 88.918 10.0508 88.918 8.69141C88.918 7.61328 90.125 6.75781 91.7188 6.75781C93.207 6.75781 94.2031 7.21484 94.2031 8.72656C94.2031 9.86328 93.043 10.4727 91.5312 10.4727ZM87.0664 8.80859C87.0664 9.65234 87.3828 10.3789 87.7812 10.8242C87.2891 11.3867 86.9141 12.0898 86.9141 13.1562C86.9141 14.0703 87.2422 14.9023 87.9102 15.3945C87.2656 15.957 86.8906 16.7891 86.8906 17.9609C86.8906 20.4102 88.6367 21.5469 91.1094 21.5469H92.3164C95.1758 21.5469 97.2148 20.3164 97.2148 17.2812C97.2148 15.0547 95.1875 14.3633 92.9844 14.3633C92.668 14.3633 91.168 14.3867 90.8633 14.3867C89.3867 14.3867 88.7539 13.8945 88.7539 13.0039C88.7539 12.5234 89.0352 12.1133 89.2578 11.8555C90.0195 12.1484 90.7578 12.2305 91.5898 12.2305C94.2266 12.2305 96.0312 10.8945 96.0312 8.67969C96.0312 8.11719 95.9844 7.625 95.6797 7.07422C95.8789 6.875 96.3359 6.81641 96.7461 6.81641C96.8633 6.81641 97.1211 6.85156 97.2617 6.875V4.95312C95.9727 4.95312 95.3516 5.07031 94.6953 5.67969C93.9336 5.21094 93.0664 4.97656 91.7188 4.97656C88.8359 4.97656 87.0664 6.34766 87.0664 8.80859ZM101.516 10.332C102.746 10.9766 105.148 11.4336 106.051 12.0781C106.695 12.5586 107.059 12.9102 107.059 13.6484C107.059 14.9375 105.664 15.5586 104.223 15.5586C102.406 15.5586 101.598 14.7148 101.598 13.1445L99.7578 13.1328C99.7578 15.6523 101.258 17.2344 104.258 17.2344C104.926 17.2344 105.629 17.1523 106.285 17C107.539 16.6719 108.875 15.6055 108.875 13.707C108.875 10.3789 105.875 10.1445 102.699 8.82031C102.23 8.60938 101.996 8.33984 101.996 7.77734C101.996 7.01562 103.039 6.67578 104.281 6.67578C105.289 6.67578 106.625 7.16797 107.246 7.89453L108.57 6.59375C107.609 5.41016 105.547 4.94141 104.117 4.94141C102.066 4.94141 100.168 5.79688 100.156 7.82422C100.156 9.125 100.754 9.92188 101.516 10.332ZM122.422 20.9141V19.0859H111.289V20.9141H122.422ZM128.082 0.324219C126.863 0.324219 125.504 0.347656 124.191 0.652344L124.52 2.32812C125.234 2.16406 126.078 2.12891 126.746 2.12891C127.098 2.12891 127.414 2.14062 127.613 2.14062L127.648 14.5625C127.648 15.2539 127.742 16.1914 128.738 16.7422C129.254 17.0234 130.145 17.1875 131.141 17.1875C132.594 17.1875 134.27 16.8359 135.277 16.0039L134.48 14.668C133.672 15.2773 132.219 15.5234 131.129 15.5234C130.051 15.5234 129.535 15.4766 129.477 14.5156C129.477 14.5156 129.441 3.52344 129.441 0.324219H128.082ZM138.383 13.3555C138.383 11.9727 139.777 11.1055 141.371 11.0938C142.59 11.0938 143.457 11.4336 144.125 11.8438V12.957C143.82 13.4375 142.59 15.2891 140.129 15.2891C139.039 15.2891 138.383 14.5859 138.383 13.3555ZM145.965 13.2734V9.40625C145.965 6.76953 144.137 4.95312 141.301 4.95312C139.203 4.95312 137.633 5.65625 136.508 7.78906L138.031 8.75C138.969 7.07422 139.707 6.72266 141.324 6.72266C143.316 6.72266 144.125 7.78906 144.125 10.0039C143.492 9.61719 142.754 9.40625 141.277 9.40625C139.895 9.40625 138.711 9.6875 137.598 10.8242C136.906 11.5391 136.555 12.582 136.555 13.4727C136.555 15.418 138.125 17.0703 140.129 17.0703C142.438 17.0703 143.633 16.0508 144.547 15.1719C144.758 16.3555 145.461 16.6484 146.07 17.1172L147.043 15.7227C146.703 15.4531 146.27 15.1836 146.117 14.9727C145.965 14.7734 145.965 13.6836 145.965 13.2734ZM156.84 11.3984C156.84 13.7891 156.195 15.2773 154.203 15.2773C152.598 15.2773 152.047 14.7383 151.215 13.4023V8.28125C151.824 7.68359 152.551 6.86328 153.617 6.86328C155.527 6.86328 156.84 8.08203 156.84 11.3984ZM158.68 11.6211C158.68 7.68359 157.238 5.04688 153.453 5.04688C152.281 5.04688 151.777 5.45703 151.215 5.87891V3.5C151.215 2.43359 151.156 1.30859 151.051 0.453125L149.188 0.558594C149.27 1.35547 149.363 2.33984 149.363 3.44141C149.363 6.72266 149.375 10.9531 149.375 13.8711V14.1523C149.375 15.125 149.27 16.1445 149.152 16.918L151.086 17.1406C151.145 16.7656 151.203 16.5078 151.215 16.0156C151.953 16.6719 152.891 17.082 154.203 17.082C157.426 17.082 158.68 14.7617 158.68 11.6211Z" fill="black"/>
</svg>
