<svg width="1479" height="266" viewBox="0 0 1479 266" fill="none" xmlns="http://www.w3.org/2000/svg">
<path fill-rule="evenodd" clip-rule="evenodd" d="M1.3907 0C127.425 52.5107 225.012 106.779 140.595 157.653C191.824 98.2218 31.0062 113.641 1.3907 0Z" fill="#5DB022"/>
<path fill-rule="evenodd" clip-rule="evenodd" d="M1.39069 0C46.6741 101.748 88.8775 104.942 117.114 129.141C98.6654 133.055 -13.7038 136.968 1.39069 0Z" fill="#5DB022"/>
<path fill-rule="evenodd" clip-rule="evenodd" d="M170.838 265.019C44.8037 212.508 -52.7831 158.24 31.634 107.366C-19.5949 166.797 141.222 151.378 170.838 265.019Z" fill="#009035"/>
<path fill-rule="evenodd" clip-rule="evenodd" d="M170.838 265.019C125.555 163.272 83.3512 160.077 55.1145 135.878C73.5634 131.964 185.932 128.051 170.838 265.019Z" fill="#009035"/>
<path d="M263.796 59.7707L228.136 120.858H264.931V131.783H214V121.858L249.948 60.7902H215V49.8466H263.796V59.7707V59.7707ZM280.145 49.8466H291.647V131.783H280.145V49.8466ZM285.723 120.858H332.789V131.783H285.723V120.858ZM285.723 85.6408H326.576V96.5661H285.723V85.6408ZM285.723 49.8466H332.789V60.7902H285.723V49.8466ZM360.62 131.783H349.118V49.8466H360.62V131.783ZM380.893 49.8466H391.318L431.382 113.184L430.035 114.645V49.8466H441.422V131.725H430.882L390.932 69.3498L392.279 67.8881V131.725H380.893V49.8466ZM539.227 49.8466H550.729V131.783H539.227V49.8466ZM492.681 49.8466H504.182V131.783H492.681V49.8466ZM499.836 85.9673H545.324V96.8923H499.836V85.9673ZM598.121 132.63C592.409 132.63 587.37 131.379 583.003 128.879C578.657 126.378 575.291 122.858 572.905 118.281C570.521 113.722 569.328 108.432 569.328 102.432V79.2168C569.328 73.1962 570.521 67.9066 572.905 63.3486C575.291 58.7897 578.657 55.2512 583.003 52.7507C587.37 50.2502 592.409 49 598.121 49C603.814 49 608.854 50.2502 613.22 52.7507C617.567 55.2512 620.952 58.7897 623.337 63.3486C625.723 67.9066 626.915 73.1962 626.915 79.2168V102.432C626.915 108.432 625.723 113.722 623.337 118.281C620.952 122.858 617.567 126.378 613.22 128.879C608.854 131.379 603.814 132.63 598.121 132.63ZM598.121 121.3C601.488 121.3 604.469 120.531 607.046 119.012C609.624 117.492 611.605 115.338 613.008 112.53C614.432 109.741 615.124 106.509 615.124 102.816V78.8122C615.124 75.1387 614.432 71.888 613.008 69.0997C611.605 66.2912 609.624 64.1373 607.046 62.6177C604.469 61.098 601.488 60.3285 598.121 60.3285C594.736 60.3285 591.755 61.098 589.177 62.6177C586.6 64.1373 584.619 66.2912 583.216 69.0997C581.791 71.888 581.099 75.1387 581.099 78.8122V102.816C581.099 106.509 581.791 109.741 583.216 112.53C584.619 115.338 586.6 117.492 589.177 119.012C591.755 120.531 594.736 121.3 598.121 121.3ZM644.36 49.8466H655.861V131.783H644.36V49.8466ZM650.111 120.858H697.003V131.783H650.111V120.858ZM722.007 131.783H710.505V49.8466H722.007V131.783ZM766.918 132.63C762.975 132.63 759.224 132.244 755.705 131.494C752.165 130.744 748.876 129.629 745.799 128.129C742.741 126.609 739.875 124.743 737.22 122.493L744.375 113.703C747.492 116.395 750.935 118.435 754.685 119.781C758.436 121.127 762.513 121.8 766.918 121.8C772.842 121.8 777.439 120.704 780.708 118.512C783.978 116.319 785.614 113.203 785.614 109.183V109.126C785.614 106.279 784.883 104.009 783.402 102.336C781.902 100.663 779.997 99.4315 777.651 98.6234C775.304 97.8153 772.265 97.0652 768.553 96.3923C768.437 96.3537 768.303 96.3343 768.187 96.3343C768.053 96.3343 767.918 96.316 767.803 96.2774L766.976 96.1229C761.474 95.1806 757.012 94.1032 753.589 92.9301C750.146 91.7378 747.203 89.5839 744.76 86.4481C742.318 83.3132 741.106 78.851 741.106 73.0621V73.0041C741.106 67.9451 742.241 63.6179 744.51 60.0206C746.78 56.4436 750.107 53.6931 754.455 51.8278C758.82 49.9423 764.052 49 770.188 49C773.111 49 775.997 49.3272 778.824 49.9615C781.671 50.5967 784.459 51.5584 787.229 52.8087C789.98 54.0589 792.691 55.6548 795.365 57.578L788.826 66.6948C785.709 64.4066 782.613 62.695 779.497 61.5403C776.4 60.4059 773.303 59.8285 770.188 59.8285C764.591 59.8285 760.224 60.9445 757.128 63.1757C754.031 65.4069 752.493 68.5803 752.493 72.6767V72.7347C752.493 75.5432 753.281 77.7551 754.877 79.3703C756.474 80.9864 758.474 82.1788 760.859 82.9482C763.244 83.7177 766.553 84.5249 770.804 85.3523C770.957 85.3909 771.091 85.4102 771.226 85.4295C771.361 85.4488 771.496 85.4864 771.649 85.525C771.842 85.5636 772.035 85.6022 772.265 85.6408C772.496 85.6601 772.688 85.6979 772.88 85.7365C777.843 86.756 781.978 87.9677 785.306 89.3531C788.633 90.7376 791.422 92.9881 793.653 96.0843C795.884 99.1815 797 103.413 797 108.798V108.895C797 113.895 795.826 118.165 793.461 121.724C791.076 125.282 787.652 127.974 783.171 129.84C778.67 131.706 773.266 132.63 766.918 132.63V132.63ZM825.235 56.5585H836.717V131.783H825.235V56.5585ZM802.058 49.8466H859.876V60.7902H802.058V49.8466ZM882.648 131.783H871.146V49.8466H882.648V131.783ZM929.752 132.63C924.078 132.63 919.097 131.379 914.788 128.86C910.479 126.34 907.152 122.763 904.786 118.146C902.42 113.53 901.247 108.164 901.247 102.086V79.601C901.247 73.5235 902.42 68.1566 904.786 63.5407C907.152 58.9249 910.479 55.3469 914.788 52.8087C919.097 50.2695 924.078 49 929.752 49C934.445 49 938.773 50.0195 942.716 52.0199C946.659 54.0203 949.948 56.8666 952.602 60.5594C955.256 64.233 957.045 68.5031 957.987 73.3497H946.197C945.486 70.7922 944.293 68.5031 942.619 66.5026C940.946 64.4829 938.984 62.945 936.734 61.8483C934.483 60.7708 932.157 60.2136 929.752 60.2136C926.405 60.2136 923.482 61.0209 920.962 62.637C918.442 64.2523 916.48 66.522 915.096 69.4261C913.711 72.3504 913.018 75.7353 913.018 79.601V102.086C913.018 105.914 913.711 109.298 915.096 112.222C916.48 115.165 918.442 117.415 920.962 119.012C923.482 120.608 926.405 121.416 929.752 121.416C932.195 121.416 934.522 120.916 936.772 119.896C939.004 118.877 940.946 117.376 942.619 115.376C944.293 113.395 945.486 111.029 946.197 108.279H957.987C957.045 113.125 955.237 117.396 952.563 121.069C949.909 124.762 946.601 127.609 942.658 129.61C938.715 131.629 934.407 132.63 929.752 132.63V132.63ZM1017.21 56.5585H1028.69V131.783H1017.21V56.5585ZM994.033 49.8466H1051.85V60.7902H994.033V49.8466ZM1109.67 49.8466H1121.17V131.783H1109.67V49.8466ZM1063.12 49.8466H1074.62V131.783H1063.12V49.8466ZM1070.28 85.9673H1115.76V96.8923H1070.28V85.9673ZM1141.44 49.8466H1152.94V131.783H1141.44V49.8466ZM1147.02 120.858H1194.08V131.783H1147.02V120.858ZM1147.02 85.6408H1187.87V96.5661H1147.02V85.6408ZM1147.02 49.8466H1194.08V60.7902H1147.02V49.8466ZM1215.43 86.198H1243.38C1245.57 86.198 1247.5 85.6794 1249.19 84.6213C1250.88 83.5632 1252.19 82.0822 1253.11 80.1397C1254.02 78.1972 1254.48 75.9854 1254.48 73.4655C1254.48 70.9457 1254.02 68.7146 1253.11 66.7914C1252.19 64.8489 1250.88 63.3485 1249.21 62.3097C1247.56 61.2516 1245.59 60.7331 1243.38 60.7331H1215.43V49.7888H1242.94C1247.67 49.7888 1251.82 50.7697 1255.42 52.7315C1259 54.674 1261.79 57.4438 1263.75 61.0401C1265.73 64.6181 1266.71 68.7724 1266.71 73.4655C1266.71 78.1586 1265.71 82.2937 1263.73 85.8909C1261.73 89.468 1258.94 92.2379 1255.36 94.1998C1251.77 96.1423 1247.63 97.1231 1242.94 97.1231H1215.43V86.198V86.198ZM1210.41 49.7888H1221.92V131.783H1210.41V49.7888ZM1237.75 94.5849L1249.19 92.0071L1270.15 131.783H1256.52L1237.75 94.5849V94.5849ZM1305.16 49.8466H1314.95L1345.17 131.783H1332.76L1310.05 65.6762L1287.35 131.783H1274.94L1305.16 49.8466ZM1288.87 102.874H1331.97V113.799H1288.87V102.874ZM1363.48 89.0644H1389.68C1392.16 89.0644 1394.33 88.4871 1396.22 87.3141C1398.1 86.1603 1399.54 84.5056 1400.58 82.371C1401.62 80.217 1402.14 77.7551 1402.14 74.9853C1402.14 72.1575 1401.62 69.6762 1400.58 67.5415C1399.54 65.4069 1398.1 63.7329 1396.22 62.5598C1394.33 61.3675 1392.16 60.7902 1389.68 60.7902H1363.48V49.8466H1389.29C1394.18 49.8466 1398.46 50.8845 1402.2 52.9814C1405.91 55.0581 1408.79 58.0018 1410.83 61.7903C1412.89 65.599 1413.91 69.9842 1413.91 74.9853C1413.91 79.9863 1412.89 84.3714 1410.83 88.1415C1408.79 91.9106 1405.91 94.8349 1402.2 96.8923C1398.46 98.97 1394.18 100.009 1389.29 100.009H1363.48V89.0644V89.0644ZM1357.55 49.8466H1369.06V131.783H1357.55V49.8466ZM1454.03 98.4893V131.783H1442.53V98.4893L1417.56 49.8466H1430.35L1448.28 86.814L1466.19 49.8466H1478.98L1454.03 98.4893Z" fill="#00A859"/>
<path d="M607.553 170.66C600.791 171.698 594.53 173.03 588.753 174.656C587.524 175.089 586.59 175.313 585.916 175.313C585.137 175.313 584.48 174.967 583.926 174.258C583.598 173.843 583.425 173.376 583.425 172.84C583.425 171.404 584.48 170.349 586.573 169.675C592.177 167.98 598.767 166.422 606.378 165.005C615.891 163.275 625.058 162.41 633.827 162.41C636.802 162.41 638.792 162.6 639.812 162.963C640.763 163.31 641.23 163.949 641.23 164.883C641.23 166.475 640.071 167.391 637.736 167.668C635.713 167.858 632.651 168.014 628.551 168.118C620.405 168.394 614.835 168.896 611.825 169.64C612.673 169.968 613.089 170.505 613.089 171.214C613.089 171.958 612.553 173.117 611.48 174.708C605.045 184.1 598.923 194.755 593.076 206.689C588.614 215.735 585.345 223.778 583.286 230.801C582.819 232.928 582.007 234 580.847 234C579.81 234 578.928 233.447 578.219 232.375C577.752 231.665 577.509 230.921 577.509 230.144C577.509 227.03 580.484 219.471 586.417 207.433C590.205 199.701 593.699 193.181 596.899 187.887C598.197 185.726 601.275 180.709 606.17 172.84L607.553 170.66V170.66ZM623.363 211.653C626.666 208.108 630.488 204.648 634.813 201.258C636.369 200.047 638.03 198.905 639.777 197.851C640.659 197.332 641.212 197.072 641.455 197.072C641.956 197.072 642.458 197.435 642.976 198.179C643.27 198.577 643.427 198.958 643.427 199.286C643.427 199.892 642.786 200.722 641.506 201.76C638.082 204.492 636.369 206.55 636.369 207.935C636.369 208.713 636.802 209.093 637.684 209.093C639.12 209.093 641.61 207.9 645.121 205.496C645.727 205.098 646.229 204.89 646.626 204.89C646.903 204.89 647.163 205.029 647.44 205.306C647.733 205.6 647.889 205.928 647.889 206.257C647.889 207.278 646.471 208.834 643.651 210.944C640.694 213.175 637.874 214.299 635.211 214.299C634.138 214.299 633.153 214.006 632.235 213.435C631.457 212.968 631.077 212.12 631.077 210.91C631.077 210.062 631.44 209.093 632.149 208.021C629.468 209.906 626.32 213.158 622.688 217.759C620.595 220.596 618.519 224.089 616.444 228.258C615.665 229.814 614.696 230.593 613.556 230.593C612.292 230.593 611.67 230.005 611.67 228.829C611.67 227.67 612.656 224.591 614.61 219.593C617.533 212.172 620.577 206.412 623.76 202.331C625.714 199.788 627.358 198.525 628.673 198.525C629.122 198.525 629.52 198.663 629.9 198.923C630.333 199.268 630.557 199.684 630.557 200.203C630.557 200.705 630.212 201.413 629.537 202.331C629.416 202.486 628.516 203.628 626.856 205.72C625.334 207.71 624.175 209.699 623.363 211.653V211.653ZM660.723 219.903C659.616 221.875 658.509 223.519 657.436 224.885C655.309 227.514 653.199 228.829 651.106 228.829C649.273 228.829 647.854 227.964 646.851 226.234C646.211 225.127 645.882 223.812 645.882 222.291C645.882 218.537 647.059 214.403 649.428 209.872C652.075 204.821 655.257 200.964 658.976 198.248C661.397 196.501 663.75 195.62 666.015 195.62C667.434 195.62 668.627 196.052 669.578 196.933C670.392 197.712 670.789 198.595 670.789 199.58C670.789 200.324 670.495 201.362 669.925 202.676C670.443 203.385 670.685 204.009 670.685 204.562C670.685 205.271 670.218 206.43 669.268 208.055C668.299 209.716 667.313 211.913 666.344 214.662C665.289 217.568 664.77 219.903 664.77 221.667C664.77 223.086 665.185 224.245 666.033 225.162C666.275 225.404 666.967 225.784 668.108 226.338C668.956 226.736 669.388 227.445 669.388 228.466C669.388 229.106 669.146 229.624 668.679 230.04C668.16 230.472 667.572 230.697 666.898 230.697C665.065 230.697 663.49 229.867 662.159 228.223C661.068 226.908 660.515 225.248 660.515 223.259C660.515 222.585 660.585 221.461 660.723 219.903V219.903ZM667.071 203.195C666.672 202.451 666.223 201.898 665.756 201.552C665.271 201.189 664.77 201.016 664.233 201.016C661.657 201.016 658.855 203.265 655.845 207.778C652.524 212.76 650.864 216.963 650.864 220.423C650.864 221.27 651.019 221.91 651.348 222.36C651.659 222.792 652.144 223.017 652.801 223.017C654.427 223.017 656.312 221.288 658.491 217.828C659.702 215.943 661.207 213.141 663.006 209.456C664.199 207.052 665.065 205.461 665.601 204.666C665.877 204.268 666.362 203.783 667.071 203.195V203.195ZM693.206 198.75C696.579 191.693 699.778 185.552 702.788 180.312C705.693 175.244 707.665 172.044 708.721 170.729C709.862 169.277 710.952 168.551 711.955 168.551C712.491 168.551 712.993 168.775 713.425 169.208C713.84 169.658 714.031 170.125 714.031 170.626C714.031 171.404 713.46 172.719 712.318 174.534C707.406 182.44 702.926 190.465 698.827 198.611C694.036 208.073 691.632 215.182 691.632 219.903C691.632 221.824 692.012 223.345 692.756 224.453C692.876 224.695 693.482 225.231 694.572 226.078C694.779 226.234 694.883 226.58 694.883 227.081C694.883 227.756 694.607 228.379 694.087 228.933C693.569 229.486 692.98 229.763 692.341 229.763C691.562 229.763 690.698 229.296 689.746 228.379C688.397 227.03 687.584 225.473 687.325 223.726C687.221 222.982 687.1 221.581 686.962 219.558C683.416 225.94 680.06 229.14 676.843 229.14C674.992 229.14 673.522 228.085 672.398 225.992C671.654 224.608 671.291 223.052 671.291 221.288C671.291 216.029 673.228 210.719 677.085 205.392C680.924 200.116 685.041 197.488 689.452 197.488C690.663 197.488 691.926 197.902 693.206 198.75ZM691.493 202.918C690.576 202.278 689.781 201.95 689.106 201.95C686.252 201.95 683.554 203.697 680.994 207.174C677.639 211.722 675.961 216.098 675.961 220.319C675.961 220.837 676.065 221.304 676.272 221.754C676.67 222.602 677.292 223.017 678.106 223.017C679.299 223.017 680.735 221.875 682.447 219.575C684.713 216.53 686.823 212.951 688.777 208.799C689.452 207.381 690.109 205.963 690.767 204.544C690.767 204.544 690.905 204.215 691.199 203.575L691.493 202.918V202.918ZM713.079 197.902C713.65 197.902 714.117 198.128 714.498 198.56C714.757 198.94 714.896 199.303 714.896 199.684C714.896 200.289 714.411 201.293 713.426 202.728C709.932 208.159 707.424 212.639 705.954 216.151C704.362 219.765 702.961 223.484 701.751 227.306C701.214 229.002 700.367 229.849 699.225 229.849C698.55 229.849 698.015 229.573 697.599 229.036C697.236 228.604 697.046 228.119 697.046 227.618C697.046 226.598 698.118 223.225 700.281 217.482C701.975 212.951 704.691 207.935 708.479 202.469C709.69 200.669 710.606 199.476 711.211 198.871C711.817 198.232 712.439 197.902 713.079 197.902ZM722.679 179.118C724.201 179.118 724.962 179.897 724.962 181.453C724.962 182.872 724.219 184.446 722.731 186.176C721.313 187.836 719.947 188.666 718.632 188.666C717.992 188.666 717.473 188.424 717.058 187.957C716.66 187.507 716.452 186.971 716.452 186.331C716.452 184.705 717.352 182.976 719.133 181.142C720.448 179.793 721.642 179.118 722.679 179.118V179.118ZM736.724 194.686C738.816 194.686 740.39 195.065 741.428 195.809C742.483 196.554 743.002 197.677 743.002 199.217C743.002 201.206 742.258 203.143 740.771 205.011C739.352 206.776 737.225 208.194 734.389 209.283C732.849 209.854 731.534 210.149 730.496 210.149C729.079 210.149 728.369 209.509 728.369 208.245C728.369 207.398 728.767 206.758 729.58 206.309C729.788 206.205 730.929 205.911 733.022 205.444C734.267 205.167 735.409 204.579 736.447 203.662C737.364 202.884 737.813 202.036 737.813 201.12C737.813 200.41 737.606 199.892 737.207 199.545C736.81 199.217 736.204 199.044 735.392 199.044C733.437 199.044 731.293 199.839 728.923 201.413C726.207 203.212 724.841 205.323 724.841 207.778C724.841 209.543 725.723 211.722 727.488 214.352C729.459 217.223 730.445 219.644 730.445 221.633C730.445 224.608 729.13 226.926 726.501 228.604C724.892 229.659 723.059 230.177 721.001 230.177C717.767 230.177 715.31 229.019 713.633 226.718C712.457 225.058 711.869 223.103 711.869 220.837C711.869 218.208 712.543 215.994 713.874 214.213C714.74 213.019 715.64 212.431 716.59 212.431C717.42 212.431 717.853 212.778 717.853 213.452C717.853 213.712 717.697 214.126 717.386 214.662C716.608 216.116 716.227 217.828 716.227 219.783C716.227 221.443 716.815 222.844 717.991 223.986C719.046 225.006 720.24 225.507 721.572 225.507C722.886 225.507 723.924 225.075 724.668 224.193C725.273 223.449 725.567 222.499 725.567 221.357C725.567 219.938 724.772 218.105 723.163 215.839C720.966 212.743 719.859 209.923 719.859 207.381C719.859 204.008 721.693 201.033 725.377 198.438C728.958 195.93 732.745 194.686 736.724 194.686V194.686ZM753.155 197.902C753.726 197.902 754.193 198.128 754.573 198.56C754.833 198.94 754.971 199.303 754.971 199.684C754.971 200.289 754.487 201.293 753.501 202.728C750.007 208.159 747.499 212.639 746.029 216.151C744.438 219.765 743.037 223.484 741.826 227.306C741.289 229.002 740.443 229.849 739.301 229.849C738.626 229.849 738.09 229.573 737.674 229.036C737.311 228.604 737.121 228.119 737.121 227.618C737.121 226.598 738.194 223.225 740.356 217.482C742.05 212.951 744.766 207.935 748.555 202.469C749.765 200.669 750.682 199.476 751.287 198.871C751.893 198.232 752.515 197.902 753.155 197.902ZM762.754 179.118C764.277 179.118 765.038 179.897 765.038 181.453C765.038 182.872 764.294 184.446 762.807 186.176C761.388 187.836 760.022 188.666 758.707 188.666C758.068 188.666 757.548 188.424 757.134 187.957C756.735 187.507 756.528 186.971 756.528 186.331C756.528 184.705 757.428 182.976 759.208 181.142C760.523 179.793 761.717 179.118 762.754 179.118V179.118ZM790.29 208.747C792.123 208.747 793.041 209.474 793.041 210.961C793.041 212.086 792.193 212.933 790.481 213.504C787.557 214.542 786.087 216.427 786.087 219.126C786.087 221.288 786.935 222.982 788.63 224.193C790.083 225.213 791.917 225.715 794.148 225.715C798.628 225.715 802.537 224.418 805.875 221.806C807.968 220.146 809.022 218.053 809.022 215.527C809.022 213.971 808.711 212.57 808.106 211.307C807.466 210.027 806.48 208.402 805.166 206.447C803.141 203.403 801.43 200.636 800.046 198.128C798.489 195.36 797.711 192.627 797.711 189.963C797.711 183.633 800.841 177.717 807.085 172.217C810.389 169.346 814.039 167.011 818.017 165.212C821.321 163.759 824.503 163.033 827.581 163.033C829.571 163.033 831.266 163.551 832.649 164.589C834.327 165.835 835.175 167.53 835.175 169.675C835.175 173.064 833.359 176.714 829.709 180.623C826.268 184.308 822.237 187.316 817.654 189.651C815.353 190.793 813.623 191.364 812.43 191.364C811.651 191.364 810.96 191.053 810.354 190.413C809.956 189.963 809.749 189.479 809.749 188.943C809.749 187.681 810.856 186.677 813.087 185.899C817.169 184.445 820.784 182.405 823.915 179.758C827.962 176.386 829.986 173.428 829.986 170.902C829.986 169.917 829.588 169.121 828.775 168.516C828.136 168.049 827.374 167.807 826.492 167.807C824.174 167.807 821.268 168.706 817.758 170.488C813.052 172.892 809.334 175.988 806.636 179.775C804.283 183.062 803.107 186.245 803.107 189.358C803.107 191.623 803.73 193.958 804.993 196.363C806.03 198.283 807.379 200.463 809.006 202.902C810.562 205.236 811.877 207.398 812.949 209.387C814.212 211.757 814.834 213.971 814.834 216.029C814.834 220.025 812.551 223.553 807.968 226.632C804.075 229.209 799.665 230.489 794.753 230.489C789.91 230.489 786.122 229.157 783.372 226.511C781.313 224.505 780.275 222.169 780.275 219.54C780.275 216.6 781.262 214.126 783.234 212.138C784.427 210.927 785.845 210.01 787.471 209.405C788.595 208.955 789.529 208.747 790.29 208.747V208.747ZM824.33 218.555V219.454C824.33 220.197 824.52 220.837 824.883 221.374C825.731 222.601 827.114 223.225 829.034 223.225C833.272 223.225 838.15 219.973 843.684 213.487C844.67 212.38 845.5 211.826 846.175 211.826C846.538 211.826 846.884 211.999 847.178 212.38C847.386 212.656 847.49 212.898 847.49 213.141C847.49 214.455 845.864 216.687 842.629 219.834C840.087 222.291 837.388 224.314 834.517 225.871C831.646 227.428 828.982 228.206 826.509 228.206C823.967 228.206 821.977 227.324 820.507 225.577C819.521 224.367 819.037 222.705 819.037 220.613C819.037 214.905 821.718 209.318 827.097 203.852C831.439 199.407 835.244 197.176 838.478 197.176C839.36 197.176 840.156 197.453 840.865 197.989C841.747 198.699 842.18 199.632 842.18 200.773C842.18 202.555 841.35 204.752 839.706 207.364C836.299 212.76 831.179 216.496 824.33 218.555V218.555ZM825.471 214.611C827.823 213.798 829.691 212.882 831.041 211.861C833.393 210.045 835.261 207.969 836.645 205.669C837.147 204.856 837.406 204.129 837.406 203.489C837.406 202.814 837.077 202.469 836.437 202.469C835.572 202.469 834.327 203.126 832.701 204.458C829.812 206.793 827.391 210.166 825.471 214.611ZM861.171 207.588C863.679 204.994 866.187 202.798 868.712 201.05C871.93 198.819 874.23 197.695 875.631 197.695C876.202 197.695 876.773 197.937 877.309 198.404C877.914 198.94 878.225 199.563 878.225 200.272C878.225 201.189 877.499 202.607 876.046 204.527C873.244 208.228 871.117 211.601 869.664 214.628C868.384 217.258 867.744 219.039 867.744 219.99C867.744 220.907 868.176 221.357 869.059 221.357C870.892 221.357 873.953 218.105 878.278 211.619C879.159 210.304 879.955 209.647 880.664 209.647C881.374 209.647 881.737 210.062 881.737 210.875C881.737 212.189 880.44 214.697 877.88 218.416C875.648 221.667 873.313 224.159 870.892 225.906C869.163 227.099 867.605 227.687 866.222 227.687C864.752 227.687 863.714 227.065 863.057 225.819C862.658 225.04 862.451 224.176 862.451 223.242C862.451 220.232 863.524 216.808 865.651 212.968C866.17 212.051 867.692 209.456 870.235 205.167C863.316 208.644 857.47 216.167 852.696 227.722C852.246 229.036 851.572 229.693 850.638 229.693C849.998 229.693 849.462 229.469 849.064 229.036C848.648 228.569 848.441 227.981 848.441 227.306C848.441 226.2 849.513 223.034 851.676 217.828C855.688 208.177 859.442 199.996 862.918 193.301C866.395 186.539 870.252 179.534 874.489 172.269C875.51 170.522 876.306 169.328 876.877 168.723C877.465 168.118 878.07 167.807 878.727 167.807C879.333 167.807 879.869 168.135 880.301 168.775C880.647 169.242 880.82 169.795 880.82 170.401C880.82 171.353 880.284 172.615 879.194 174.206C875.562 179.845 871.93 186.037 868.315 192.8C864.44 200.03 862.054 204.959 861.171 207.588V207.588ZM896.128 219.903C895.021 221.875 893.914 223.519 892.841 224.885C890.714 227.514 888.604 228.829 886.511 228.829C884.678 228.829 883.259 227.964 882.256 226.234C881.616 225.127 881.287 223.812 881.287 222.291C881.287 218.537 882.464 214.403 884.833 209.872C887.48 204.821 890.663 200.964 894.381 198.248C896.803 196.501 899.155 195.62 901.42 195.62C902.839 195.62 904.032 196.052 904.984 196.933C905.797 197.712 906.194 198.595 906.194 199.58C906.194 200.324 905.9 201.362 905.33 202.676C905.849 203.385 906.09 204.009 906.09 204.562C906.09 205.271 905.623 206.43 904.673 208.055C903.704 209.716 902.718 211.913 901.749 214.662C900.694 217.568 900.176 219.903 900.176 221.667C900.176 223.086 900.59 224.245 901.438 225.162C901.68 225.404 902.372 225.784 903.514 226.338C904.361 226.736 904.793 227.445 904.793 228.466C904.793 229.106 904.552 229.624 904.084 230.04C903.565 230.472 902.978 230.697 902.303 230.697C900.47 230.697 898.895 229.867 897.564 228.223C896.474 226.908 895.92 225.248 895.92 223.259C895.92 222.585 895.99 221.461 896.128 219.903V219.903ZM902.476 203.195C902.078 202.451 901.628 201.898 901.161 201.552C900.677 201.189 900.176 201.016 899.639 201.016C897.062 201.016 894.26 203.265 891.25 207.778C887.929 212.76 886.269 216.963 886.269 220.423C886.269 221.27 886.424 221.91 886.754 222.36C887.064 222.792 887.549 223.017 888.206 223.017C889.832 223.017 891.717 221.288 893.897 217.828C895.107 215.943 896.612 213.141 898.411 209.456C899.605 207.052 900.47 205.461 901.006 204.666C901.282 204.268 901.767 203.783 902.476 203.195V203.195ZM926.708 195.654C924.512 199.062 922.453 202.902 920.585 207.121C917.905 213.158 916.555 217.655 916.555 220.63C916.555 221.477 916.728 222.118 917.091 222.567C917.437 223 917.973 223.225 918.682 223.225C920.377 223.225 922.436 221.633 924.84 218.468C926.362 216.496 927.712 214.542 928.905 212.587C929.545 211.463 930.254 210.91 930.997 210.91C931.447 210.91 931.827 211.065 932.122 211.359C932.398 211.671 932.537 211.982 932.537 212.276C932.537 213.521 930.893 216.323 927.608 220.647C923.681 225.819 920.101 228.413 916.849 228.413C915.119 228.413 913.684 227.618 912.542 226.027C911.833 225.023 911.47 223.57 911.47 221.72C911.47 217.621 912.664 212.864 915.05 207.415C915.621 206.067 917.23 202.798 919.842 197.626C918.925 197.885 918.215 198.006 917.731 198.006C917.005 198.006 916.382 197.833 915.829 197.504C915.068 197.021 914.687 196.432 914.687 195.723C914.687 194.876 915.171 194.201 916.157 193.699C916.434 193.561 917.697 193.354 919.928 193.042C920.741 192.904 921.934 192.592 923.491 192.091C924.684 189.946 926.639 187.057 929.337 183.408C930.825 181.384 931.862 180.052 932.433 179.447C933.246 178.6 933.956 178.184 934.561 178.184C935.01 178.184 935.443 178.427 935.875 178.894C936.291 179.326 936.498 179.775 936.498 180.208C936.498 181.09 935.547 182.82 933.661 185.414C932.398 187.11 931.482 188.476 930.859 189.514C934.561 188.528 937.225 188.044 938.816 188.044C940.649 188.044 941.566 188.821 941.566 190.379C941.566 191.156 941.254 191.727 940.614 192.108C940.269 192.298 939.403 192.471 937.985 192.61C937.415 192.575 934.89 193.215 930.392 194.495C929.147 194.876 927.919 195.256 926.708 195.654V195.654ZM995.323 200.306C987.626 201.829 981.192 203.628 976.003 205.686C972.889 210.235 969.465 215.718 965.745 222.1L963.047 226.805C962.58 227.652 961.854 228.88 960.868 230.454C959.778 232.322 958.654 233.256 957.461 233.256C956.821 233.256 956.285 232.997 955.835 232.495C955.402 232.046 955.178 231.561 955.178 231.025C955.178 230.074 956.44 227.393 958.983 222.966C960.367 220.561 962.46 217.171 965.262 212.778C966.351 211.083 967.199 209.699 967.856 208.626C965.815 209.197 963.965 209.854 962.27 210.598C961.456 210.961 960.782 211.152 960.245 211.152C959.571 211.152 959.052 210.857 958.671 210.235C958.412 209.872 958.274 209.439 958.274 208.92C958.274 207.778 958.671 206.966 959.485 206.499C960.799 205.686 963.169 204.752 966.576 203.714C969.118 202.902 971.125 202.157 972.613 201.483C973.321 200.601 975.172 198.024 978.182 193.734C979.479 191.884 983.111 187.49 989.131 180.572C993.455 175.503 997.918 170.782 1002.52 166.422C1005.18 163.863 1007.22 162.583 1008.64 162.583C1009.52 162.583 1010.28 162.929 1010.92 163.638C1011.46 164.278 1011.74 164.987 1011.74 165.765C1011.74 166.717 1011.27 168.377 1010.32 170.729C1008.71 174.898 1007.15 179.326 1005.67 184.065C1004.39 188.251 1003.52 191.468 1003.09 193.699C1003.69 193.699 1004.09 193.682 1004.3 193.648C1005.29 193.613 1006.08 193.595 1006.72 193.595C1008.68 193.595 1009.66 194.339 1009.66 195.826C1009.66 196.466 1009.45 197.107 1009.04 197.73C1008.61 198.352 1008.14 198.733 1007.59 198.871C1007.4 198.94 1006.84 198.958 1005.93 198.958C1004.01 198.958 1002.59 199.078 1001.64 199.321C1000.82 201.725 999.543 207.848 997.796 217.725C996.88 224.279 996.448 228.292 996.482 229.78C996.482 232.218 995.755 233.429 994.285 233.429C993.144 233.429 992.245 232.842 991.587 231.647C991.12 230.835 990.878 229.745 990.878 228.362C990.878 223.692 991.725 217.413 993.403 209.509C994.268 205.53 994.908 202.451 995.323 200.306V200.306ZM996.724 194.841C997.035 193.855 997.796 191.243 999.024 186.971C999.319 185.864 1000.1 183.65 1001.32 180.346C1002.55 176.922 1003.54 174.189 1004.27 172.13C1002.1 173.584 999.906 175.503 997.675 177.907C989.719 186.486 984.098 193.492 980.811 198.94C982.074 198.629 984.755 197.867 988.872 196.657C990.065 196.311 992.677 195.706 996.724 194.841ZM1013.93 211.463C1012.91 214.092 1012.15 216.22 1011.65 217.845C1011.15 219.454 1010.89 220.596 1010.89 221.235C1010.89 222.083 1011.29 222.499 1012.1 222.499C1013.31 222.499 1014.89 221.357 1016.8 219.056C1017.72 217.931 1019.07 215.926 1020.85 213.02C1021.56 211.861 1022.31 211.29 1023.07 211.29C1023.95 211.29 1024.38 211.705 1024.38 212.553C1024.38 214.006 1022.7 216.946 1019.37 221.374C1015.89 225.992 1012.67 228.309 1009.7 228.309C1008.42 228.309 1007.38 227.773 1006.57 226.684C1005.99 225.905 1005.7 224.971 1005.7 223.847C1005.7 221.962 1006.27 219.35 1007.43 216.012C1008.57 212.674 1010.28 208.609 1012.55 203.818C1018.36 191.623 1024.29 181.592 1030.35 173.688C1035.17 167.34 1039.19 164.174 1042.37 164.174C1043.37 164.174 1044.2 164.554 1044.84 165.333C1045.52 166.112 1045.86 167.011 1045.86 168.014C1045.86 172.754 1041.64 180.606 1033.19 191.607C1029.41 196.501 1024.88 201.397 1019.61 206.291C1018.22 207.571 1016.34 209.301 1013.93 211.463V211.463ZM1017.51 203.489C1024.54 197.47 1030.83 189.877 1036.37 180.675C1039.24 175.919 1040.67 172.754 1040.67 171.196C1040.67 170.453 1040.35 170.09 1039.71 170.09C1037.85 170.09 1034.48 173.791 1029.57 181.194C1025.52 187.265 1021.51 194.702 1017.51 203.489ZM1042.73 219.903C1041.63 221.875 1040.52 223.519 1039.45 224.885C1037.32 227.514 1035.21 228.829 1033.12 228.829C1031.28 228.829 1029.86 227.964 1028.86 226.234C1028.22 225.127 1027.89 223.812 1027.89 222.291C1027.89 218.537 1029.07 214.403 1031.44 209.872C1034.08 204.821 1037.27 200.964 1040.99 198.248C1043.41 196.501 1045.76 195.62 1048.02 195.62C1049.44 195.62 1050.64 196.052 1051.59 196.933C1052.4 197.712 1052.8 198.595 1052.8 199.58C1052.8 200.324 1052.5 201.362 1051.93 202.676C1052.45 203.385 1052.69 204.009 1052.69 204.562C1052.69 205.271 1052.23 206.43 1051.28 208.055C1050.31 209.716 1049.32 211.913 1048.35 214.662C1047.3 217.568 1046.78 219.903 1046.78 221.667C1046.78 223.086 1047.19 224.245 1048.04 225.162C1048.28 225.404 1048.98 225.784 1050.12 226.338C1050.97 226.736 1051.4 227.445 1051.4 228.466C1051.4 229.106 1051.16 229.624 1050.69 230.04C1050.17 230.472 1049.58 230.697 1048.91 230.697C1047.07 230.697 1045.5 229.867 1044.17 228.223C1043.08 226.908 1042.52 225.248 1042.52 223.259C1042.52 222.585 1042.59 221.461 1042.73 219.903V219.903ZM1049.08 203.195C1048.68 202.451 1048.23 201.898 1047.77 201.552C1047.28 201.189 1046.78 201.016 1046.24 201.016C1043.67 201.016 1040.86 203.265 1037.85 207.778C1034.53 212.76 1032.87 216.963 1032.87 220.423C1032.87 221.27 1033.03 221.91 1033.36 222.36C1033.67 222.792 1034.15 223.017 1034.81 223.017C1036.44 223.017 1038.32 221.288 1040.5 217.828C1041.71 215.943 1043.22 213.141 1045.02 209.456C1046.21 207.052 1047.07 205.461 1047.61 204.666C1047.89 204.268 1048.37 203.783 1049.08 203.195V203.195ZM1063.37 211.394C1066.2 208.418 1068.69 206.083 1070.87 204.406C1074.16 201.864 1076.36 200.6 1077.46 200.6C1078.02 200.6 1078.48 200.808 1078.9 201.206C1079.26 201.57 1079.45 201.984 1079.45 202.417C1079.45 203.057 1078.86 204.095 1077.67 205.547C1075.85 207.831 1074.59 209.785 1073.88 211.394C1081.8 203.506 1087.22 199.563 1090.14 199.563C1090.75 199.563 1091.27 199.753 1091.72 200.116C1092.18 200.532 1092.42 201.034 1092.42 201.638C1092.42 202.59 1091.7 203.801 1090.23 205.288C1083.81 211.878 1080.59 217.292 1080.59 221.512C1080.59 223.242 1080.89 224.469 1081.49 225.213L1082.79 226.891C1083.05 227.185 1083.19 227.583 1083.19 228.05C1083.19 228.586 1082.96 229.106 1082.53 229.573C1082.03 230.109 1081.46 230.385 1080.82 230.385C1079.71 230.385 1078.69 229.676 1077.74 228.24C1076.6 226.545 1076.03 224.539 1076.03 222.238C1076.03 219.142 1076.91 216.029 1078.66 212.864C1079.28 211.74 1080.28 210.252 1081.7 208.384C1078.83 210.563 1075.92 213.555 1072.95 217.361C1070.94 219.938 1069.13 222.827 1067.52 226.009C1066.74 227.548 1065.82 228.309 1064.79 228.309C1063.63 228.309 1063.06 227.67 1063.06 226.373C1063.06 224.989 1064.01 222.118 1065.89 217.776C1066.98 215.303 1068.31 212.691 1069.91 209.941C1064.13 214.421 1059.79 220.492 1056.88 228.154C1056.15 229.849 1055.22 230.697 1054.03 230.697C1053.49 230.697 1053.06 230.489 1052.71 230.091C1052.35 229.677 1052.16 229.192 1052.16 228.621C1052.16 226.614 1053.27 223.017 1055.5 217.811C1057.81 212.293 1060.44 207.329 1063.37 202.936C1065.39 199.857 1066.96 198.318 1068.07 198.318C1069.09 198.318 1069.59 198.854 1069.59 199.943C1069.59 200.41 1068.97 201.587 1067.73 203.489C1065.53 207.035 1064.08 209.664 1063.37 211.394V211.394Z" fill="#00A859"/>
<path d="M1104.83 197.902C1105.4 197.902 1105.86 198.128 1106.24 198.56C1106.5 198.94 1106.64 199.303 1106.64 199.684C1106.64 200.289 1106.16 201.293 1105.17 202.728C1101.68 208.159 1099.17 212.639 1097.7 216.151C1096.11 219.765 1094.71 223.484 1093.5 227.306C1092.96 229.002 1092.11 229.849 1090.97 229.849C1090.3 229.849 1089.76 229.573 1089.35 229.036C1088.98 228.604 1088.79 228.119 1088.79 227.618C1088.79 226.598 1089.87 223.225 1092.03 217.482C1093.72 212.951 1096.44 207.935 1100.23 202.469C1101.44 200.669 1102.35 199.476 1102.96 198.871C1103.56 198.232 1104.19 197.902 1104.83 197.902ZM1114.43 179.118C1115.95 179.118 1116.71 179.897 1116.71 181.453C1116.71 182.872 1115.97 184.446 1114.48 186.176C1113.06 187.836 1111.69 188.666 1110.38 188.666C1109.74 188.666 1109.22 188.424 1108.8 187.957C1108.41 187.507 1108.2 186.971 1108.2 186.331C1108.2 184.705 1109.1 182.976 1110.88 181.143C1112.19 179.793 1113.39 179.118 1114.43 179.118V179.118Z" fill="#00A859"/>
</svg>
