<?xml version="1.0" encoding="UTF-8" standalone="no"?>
<svg
   xmlns:dc="http://purl.org/dc/elements/1.1/"
   xmlns:cc="http://creativecommons.org/ns#"
   xmlns:rdf="http://www.w3.org/1999/02/22-rdf-syntax-ns#"
   xmlns:svg="http://www.w3.org/2000/svg"
   xmlns="http://www.w3.org/2000/svg"
   xmlns:sodipodi="http://sodipodi.sourceforge.net/DTD/sodipodi-0.dtd"
   xmlns:inkscape="http://www.inkscape.org/namespaces/inkscape"
   version="1.1"
   width="390.04929"
   height="336.61591"
   id="svg850"
   viewBox="0 0 390.04928 336.61591"
   sodipodi:docname="ic_logo_text.svg"
   inkscape:version="1.0.1 (c497b03c, 2020-09-10)">
  <metadata
     id="metadata856">
    <rdf:RDF>
      <cc:Work
         rdf:about="">
        <dc:format>image/svg+xml</dc:format>
        <dc:type
           rdf:resource="http://purl.org/dc/dcmitype/StillImage" />
        <dc:title></dc:title>
      </cc:Work>
    </rdf:RDF>
  </metadata>
  <defs
     id="defs854" />
  <sodipodi:namedview
     pagecolor="#ffffff"
     bordercolor="#666666"
     borderopacity="1"
     objecttolerance="10"
     gridtolerance="10"
     guidetolerance="10"
     inkscape:pageopacity="0"
     inkscape:pageshadow="2"
     inkscape:window-width="1680"
     inkscape:window-height="965"
     id="namedview852"
     showgrid="false"
     inkscape:zoom="0.87303591"
     inkscape:cx="-21.376131"
     inkscape:cy="62.231876"
     inkscape:window-x="0"
     inkscape:window-y="25"
     inkscape:window-maximized="1"
     inkscape:current-layer="Layer1000" />
  <g
     id="Layer1000"
     transform="translate(-104.8606,-248.0822)">
    <g
       id="g866">
      <path
         d="m 215.544,248.0822 c 126.0343,52.5107 223.6212,106.7792 139.2041,157.653 v 0 C 405.9769,346.304 245.1595,361.723 215.544,248.0822 Z"
         style="fill:#5db022;fill-rule:evenodd"
         id="path833" />
      <path
         d="m 215.544,248.0822 c 45.2834,101.7476 87.4868,104.9422 115.7236,129.1413 v 0 0 c -18.4489,3.9136 -130.8181,7.8268 -115.7236,-129.1413 z"
         style="fill:#5db022;fill-rule:evenodd"
         id="path835" />
      <path
         d="M 384.9913,513.1013 C 258.957,460.5906 161.3702,406.3221 245.7873,355.4483 v 0 c -51.2289,59.4312 109.5885,44.0122 139.204,157.653 z"
         style="fill:#009035;fill-rule:evenodd"
         id="path837" />
      <path
         d="M 384.9913,513.1013 C 339.708,411.3537 297.5045,408.1592 269.2678,383.96 v 0 0 c 18.4489,-3.9136 130.818,-7.8268 115.7235,129.1413 z"
         style="fill:#009035;fill-rule:evenodd"
         id="path839" />
    </g>
    <path
       d="m 120.2151,530.9753 -10.9956,18.836 h 11.3454 v 3.3687 h -15.7043 v -3.0603 l 11.0843,-18.83 H 105.169 v -3.3744 h 15.0461 z m 5.0411,-3.06 h 3.5464 V 553.18 h -3.5464 z m 1.7198,21.896 h 14.5125 V 553.18 H 126.976 Z m 0,-10.859 h 12.5969 v 3.3687 H 126.976 Z m 0,-11.037 h 14.5125 v 3.3744 H 126.976 Z m 23.0941,25.2647 h -3.5464 v -25.2647 h 3.5464 z m 6.251,-25.2647 h 3.2145 l 12.3536,19.5296 -0.4152,0.4507 v -19.9803 h 3.5109 v 25.2468 h -3.2499 l -12.3182,-19.2331 0.4153,-0.4507 v 19.6838 h -3.511 z m 48.8216,0 h 3.5465 V 553.18 h -3.5465 z m -14.3523,0 h 3.5464 V 553.18 h -3.5464 z m 2.2062,11.1376 h 14.0261 v 3.3687 h -14.0261 z m 30.3057,14.3881 c -1.7614,0 -3.3151,-0.3855 -4.6615,-1.1565 -1.3403,-0.771 -2.378,-1.8564 -3.1136,-3.2678 -0.7353,-1.4057 -1.103,-3.0367 -1.103,-4.8869 v -7.1583 c 0,-1.8564 0.3677,-3.4875 1.103,-4.8929 0.7356,-1.4057 1.7733,-2.4968 3.1136,-3.2678 1.3464,-0.771 2.9001,-1.1565 4.6615,-1.1565 1.7555,0 3.3095,0.3855 4.6557,1.1565 1.3405,0.771 2.3842,1.8621 3.1195,3.2678 0.7356,1.4054 1.1032,3.0365 1.1032,4.8929 v 7.1583 c 0,1.8502 -0.3676,3.4812 -1.1032,4.8869 -0.7353,1.4114 -1.779,2.4968 -3.1195,3.2678 -1.3462,0.771 -2.9002,1.1565 -4.6557,1.1565 z m 0,-3.4934 c 1.0381,0 1.9574,-0.237 2.7519,-0.7055 0.7948,-0.4686 1.4057,-1.1327 1.8386,-1.9987 0.4388,-0.8601 0.6522,-1.8564 0.6522,-2.9951 v -7.4016 c 0,-1.1327 -0.2134,-2.135 -0.6522,-2.9948 -0.4329,-0.8659 -1.0438,-1.5301 -1.8386,-1.9987 -0.7945,-0.4685 -1.7138,-0.7058 -2.7519,-0.7058 -1.0437,0 -1.963,0.2373 -2.7578,0.7058 -0.7945,0.4686 -1.4054,1.1328 -1.8383,1.9987 -0.4391,0.8598 -0.6525,1.8621 -0.6525,2.9948 v 7.4016 c 0,1.1387 0.2134,2.135 0.6525,2.9951 0.4329,0.866 1.0438,1.5301 1.8383,1.9987 0.7948,0.4685 1.7141,0.7055 2.7578,0.7055 z m 14.2574,-22.0323 h 3.5465 V 553.18 h -3.5465 z m 1.7734,21.896 h 14.459 v 3.3687 h -14.459 z m 22.1686,3.3687 h -3.5464 v -25.2647 h 3.5464 z m 13.8481,0.261 c -1.2158,0 -2.3723,-0.1187 -3.4574,-0.35 -1.0913,-0.2313 -2.1056,-0.5752 -3.0543,-1.0378 -0.9431,-0.4686 -1.8267,-1.044 -2.6453,-1.7376 v 0 l 2.2062,-2.7105 v 0 c 0.9609,0.8302 2.0225,1.459 3.179,1.8742 1.1566,0.415 2.4137,0.6225 3.7718,0.6225 1.8267,0 3.2443,-0.3379 4.2523,-1.0139 1.0083,-0.6761 1.5125,-1.637 1.5125,-2.8766 v -0.0176 c 0,-0.8779 -0.2253,-1.5778 -0.682,-2.0937 -0.4626,-0.5159 -1.0499,-0.8954 -1.7733,-1.1446 -0.7237,-0.2492 -1.6606,-0.4805 -2.8052,-0.688 -0.0357,-0.0119 -0.0771,-0.0178 -0.1128,-0.0178 -0.0414,0 -0.0831,-0.006 -0.1185,-0.0176 l -0.2551,-0.0476 c -1.6963,-0.2906 -3.0722,-0.6228 -4.1278,-0.9845 -1.0616,-0.3676 -1.969,-1.0318 -2.7221,-1.9987 -0.7532,-0.9666 -1.1268,-2.3426 -1.1268,-4.1275 v -0.0179 c 0,-1.5599 0.3498,-2.8942 1.0497,-4.0034 0.6998,-1.1029 1.7257,-1.951 3.0662,-2.5262 1.3462,-0.5814 2.9594,-0.8719 4.8512,-0.8719 0.9014,0 1.7912,0.1009 2.6629,0.2965 0.8779,0.1958 1.7376,0.4923 2.5917,0.8779 0.8481,0.3855 1.6843,0.8776 2.5087,1.4706 v 0 l -2.0163,2.8111 v 0 c -0.961,-0.7055 -1.9157,-1.2334 -2.8766,-1.5894 -0.9547,-0.3498 -1.9097,-0.5278 -2.8704,-0.5278 -1.7257,0 -3.0722,0.3441 -4.0269,1.0321 -0.955,0.688 -1.4292,1.6665 -1.4292,2.9296 v 0.0179 c 0,0.8659 0.2429,1.548 0.7353,2.046 0.4924,0.4983 1.1089,0.866 1.8445,1.1032 0.7353,0.2373 1.7555,0.4862 3.0662,0.7413 0.0474,0.0119 0.0888,0.0179 0.1304,0.0238 0.0414,0.006 0.0831,0.0176 0.1304,0.0295 0.0593,0.0119 0.1188,0.0238 0.1899,0.0357 0.0712,0.006 0.1304,0.0176 0.1897,0.0295 1.5301,0.3144 2.8051,0.688 3.8313,1.1151 1.0258,0.4269 1.8859,1.1209 2.5738,2.0756 0.688,0.955 1.0321,2.2598 1.0321,3.9203 v 0.0298 c 0,1.5417 -0.3619,2.8584 -1.0913,3.9557 -0.7353,1.097 -1.7912,1.9273 -3.1728,2.5027 -1.3879,0.5752 -3.0544,0.86 -5.0117,0.86 z m 17.9819,-23.4561 h 3.5405 V 553.18 h -3.5405 z m -7.1464,-2.0696 h 17.8276 v 3.3744 h -17.8276 z m 24.8493,25.2647 h -3.5464 v -25.2647 h 3.5464 z m 14.5242,0.261 c -1.7496,0 -3.2854,-0.3855 -4.614,-1.1624 -1.3286,-0.777 -2.3544,-1.88 -3.0841,-3.3035 -0.7293,-1.4233 -1.091,-3.0779 -1.091,-4.9522 V 537.09 c 0,-1.874 0.3617,-3.5289 1.091,-4.9522 0.7297,-1.4232 1.7555,-2.5265 3.0841,-3.3091 1.3286,-0.783 2.8644,-1.1744 4.614,-1.1744 1.4471,0 2.7816,0.3143 3.9974,0.9311 1.2158,0.6169 2.23,1.4945 3.0484,2.6332 0.8183,1.1327 1.37,2.4494 1.6605,3.9438 v 0 h -3.6354 v 0 c -0.2194,-0.7886 -0.5871,-1.4944 -1.1033,-2.1113 -0.5159,-0.6227 -1.1208,-1.097 -1.8147,-1.4351 -0.6939,-0.3323 -1.4114,-0.504 -2.1529,-0.504 -1.0318,0 -1.9333,0.2489 -2.7102,0.7472 -0.777,0.498 -1.3819,1.1979 -1.8088,2.0934 -0.4272,0.9017 -0.6407,1.9454 -0.6407,3.1374 v 6.9329 c 0,1.1804 0.2135,2.2241 0.6407,3.1255 0.4269,0.9074 1.0318,1.6013 1.8088,2.0937 0.7769,0.4921 1.6784,0.7412 2.7102,0.7412 0.7534,0 1.4709,-0.1542 2.1648,-0.4685 0.688,-0.3144 1.2869,-0.777 1.8028,-1.3938 0.5162,-0.6109 0.8839,-1.3402 1.1033,-2.1884 v 0 h 3.6354 v 0 c -0.2905,1.4945 -0.8481,2.8111 -1.6724,3.9439 -0.8184,1.1386 -1.8386,2.0165 -3.0544,2.6334 -1.2157,0.6227 -2.5441,0.9311 -3.9795,0.9311 z m 26.9671,-23.4561 h 3.5405 V 553.18 h -3.5405 z m -7.1464,-2.0696 h 17.8276 v 3.3744 h -17.8276 z m 35.6553,0 h 3.5464 V 553.18 h -3.5464 z m -14.3524,0 h 3.5464 V 553.18 h -3.5464 z m 2.2062,11.1376 h 14.0261 v 3.3687 h -14.0261 z m 21.9436,-11.1376 h 3.5464 V 553.18 h -3.5464 z m 1.7197,21.896 h 14.5126 v 3.3687 h -14.5126 z m 0,-10.859 h 12.5969 v 3.3687 h -12.5969 z m 0,-11.037 h 14.5126 v 3.3744 h -14.5126 z m 21.0958,11.2088 h 8.6173 c 0.676,0 1.269,-0.1599 1.7909,-0.4861 0.5219,-0.3263 0.9252,-0.783 1.2098,-1.3819 0.279,-0.599 0.4213,-1.281 0.4213,-2.058 v 0 c 0,-0.777 -0.1423,-1.4649 -0.4213,-2.0579 -0.2846,-0.599 -0.6879,-1.0616 -1.2038,-1.3819 -0.51,-0.3263 -1.1149,-0.4862 -1.7969,-0.4862 h -8.6173 v -3.3746 h 8.4806 c 1.459,0 2.74,0.3024 3.8492,0.9074 1.103,0.5989 1.963,1.453 2.5679,2.5619 0.6109,1.1032 0.9133,2.3842 0.9133,3.8313 v 0 c 0,1.4471 -0.3084,2.7221 -0.9192,3.8313 -0.6169,1.103 -1.4766,1.9571 -2.5798,2.562 -1.109,0.5989 -2.3843,0.9014 -3.8314,0.9014 h -8.4806 z m -1.548,-11.2266 h 3.5464 V 553.18 h -3.5464 z m 8.4274,13.8126 3.5288,-0.7948 6.4644,12.2647 h -4.2049 z m 20.7873,-13.7948 h 3.0186 l 9.3172,25.2647 h -3.8254 l -7.0041,-20.3837 -6.9982,20.3837 h -3.8253 z m -5.0233,16.3508 h 13.2905 v 3.3687 h -13.2905 z m 23.0051,-4.2582 h 8.0776 c 0.7651,0 1.4352,-0.178 2.0166,-0.5397 0.5811,-0.3557 1.0259,-0.866 1.3462,-1.5242 0.3203,-0.6641 0.4804,-1.4232 0.4804,-2.2773 v 0 c 0,-0.872 -0.1601,-1.637 -0.4804,-2.2952 -0.3203,-0.6582 -0.7651,-1.1744 -1.3462,-1.5361 -0.5814,-0.3677 -1.2515,-0.5457 -2.0166,-0.5457 h -8.0776 v -3.3744 h 7.9591 c 1.5064,0 2.8287,0.3201 3.9793,0.9667 1.1446,0.6403 2.0344,1.548 2.6629,2.7161 0.6347,1.1744 0.949,2.5265 0.949,4.0686 v 0 c 0,1.542 -0.3143,2.8942 -0.949,4.0566 -0.6285,1.1622 -1.5183,2.0639 -2.6629,2.6983 -1.1506,0.6407 -2.4729,0.961 -3.9793,0.961 h -7.9591 z m -1.8266,-12.0926 h 3.5464 V 553.18 h -3.5464 z m 29.7482,14.9987 v 10.266 h -3.5465 v -10.266 l -7.698,-14.9987 h 3.9438 l 5.5276,11.3987 5.5213,-11.3987 h 3.9439 z"
       style="fill:#009035;fill-rule:evenodd"
       id="path842" />
    <g
       id="Layer1002">
      <path
         d="m 226.2107,565.1677 c -2.0852,0.32 -4.0159,0.7308 -5.7972,1.2319 -0.3787,0.1335 -0.6667,0.2027 -0.8747,0.2027 -0.2401,0 -0.4428,-0.1066 -0.6134,-0.3254 -0.1012,-0.1279 -0.1545,-0.2719 -0.1545,-0.4371 0,-0.4428 0.3251,-0.7682 0.9705,-0.976 1.728,-0.5227 3.7599,-1.0029 6.1067,-1.44 2.9333,-0.5335 5.76,-0.8002 8.464,-0.8002 0.9173,0 1.5307,0.0587 1.8453,0.1706 0.2932,0.1069 0.4372,0.3042 0.4372,0.5922 0,0.4907 -0.3572,0.7733 -1.0772,0.8586 -0.6239,0.0587 -1.5681,0.1066 -2.8321,0.1386 -2.5118,0.0853 -4.2293,0.2401 -5.1574,0.4694 0.2614,0.1012 0.3895,0.2668 0.3895,0.4853 0,0.2294 -0.1652,0.5868 -0.496,1.0775 -1.984,2.8959 -3.8719,6.1812 -5.6747,9.8611 -1.376,2.7893 -2.384,5.2694 -3.0186,7.4348 -0.144,0.6559 -0.3946,0.9864 -0.7521,0.9864 -0.3197,0 -0.5918,-0.1706 -0.8104,-0.5012 -0.144,-0.2188 -0.2188,-0.4481 -0.2188,-0.6879 0,-0.9601 0.9173,-3.2908 2.7467,-7.0027 1.1679,-2.384 2.2454,-4.3946 3.2318,-6.0268 0.4003,-0.6664 1.3496,-2.2133 2.8588,-4.6397 z m 4.8747,12.64 c 1.0185,-1.0934 2.1972,-2.16 3.5306,-3.2055 0.4799,-0.3733 0.9918,-0.7253 1.5307,-1.0505 0.2718,-0.1601 0.4425,-0.2401 0.5173,-0.2401 0.1545,0 0.3093,0.112 0.4691,0.3413 0.0907,0.1228 0.1389,0.2401 0.1389,0.3413 0,0.1868 -0.1975,0.4428 -0.5921,0.7628 -1.0559,0.8425 -1.584,1.4771 -1.584,1.904 0,0.2399 0.1335,0.3572 0.4053,0.3572 0.4428,0 1.2107,-0.3679 2.2933,-1.1092 0.1868,-0.1227 0.3415,-0.1868 0.464,-0.1868 0.0853,0 0.1655,0.0428 0.2509,0.1281 0.0904,0.0907 0.1386,0.1919 0.1386,0.2934 0,0.3147 -0.4374,0.7946 -1.3068,1.4451 -0.9119,0.688 -1.7813,1.0347 -2.6025,1.0347 -0.3308,0 -0.6347,-0.0905 -0.9176,-0.2665 -0.2398,-0.144 -0.3571,-0.4053 -0.3571,-0.7787 0,-0.2613 0.1119,-0.5601 0.3305,-0.8906 -0.8266,0.5811 -1.7972,1.584 -2.9171,3.0024 -0.6455,0.8748 -1.2856,1.952 -1.9253,3.2375 -0.2401,0.4799 -0.5389,0.72 -0.8907,0.72 -0.3895,0 -0.5814,-0.1814 -0.5814,-0.544 0,-0.3574 0.3039,-1.3067 0.9066,-2.8479 0.9014,-2.2882 1.8399,-4.0641 2.8213,-5.3227 0.6026,-0.784 1.1095,-1.1735 1.5148,-1.1735 0.1386,0 0.2614,0.0428 0.3784,0.1227 0.1335,0.1066 0.2027,0.2347 0.2027,0.3946 0,0.1548 -0.1066,0.3733 -0.3146,0.6562 -0.0372,0.0479 -0.3147,0.4 -0.8266,1.0452 -0.4694,0.6134 -0.8266,1.2268 -1.0772,1.8295 z m 11.5197,2.5438 c -0.3413,0.608 -0.6825,1.1148 -1.0134,1.5361 -0.6559,0.8107 -1.3064,1.216 -1.9519,1.216 -0.5652,0 -1.0026,-0.2667 -1.3119,-0.8002 -0.1973,-0.3413 -0.2987,-0.7466 -0.2987,-1.2158 0,-1.1574 0.3628,-2.4321 1.0933,-3.8293 0.8161,-1.5574 1.7974,-2.7468 2.9441,-3.5841 0.7466,-0.5386 1.472,-0.8105 2.1704,-0.8105 0.4374,0 0.8054,0.1333 1.0987,0.4051 0.2509,0.2401 0.3734,0.5122 0.3734,0.8161 0,0.2293 -0.0907,0.5494 -0.2665,0.9547 0.1599,0.2186 0.2344,0.4108 0.2344,0.5814 0,0.2186 -0.144,0.576 -0.4371,1.0772 -0.2987,0.5119 -0.6026,1.1894 -0.9014,2.0372 -0.3254,0.8961 -0.4853,1.6161 -0.4853,2.16 0,0.4374 0.1279,0.7949 0.3892,1.0775 0.0749,0.0745 0.288,0.1919 0.6401,0.3625 0.2613,0.1228 0.3946,0.3416 0.3946,0.6563 0,0.1972 -0.0746,0.3571 -0.2186,0.4852 -0.1601,0.1333 -0.3413,0.2027 -0.5493,0.2027 -0.5653,0 -1.0508,-0.2559 -1.4613,-0.7628 -0.3362,-0.4053 -0.5068,-0.9173 -0.5068,-1.5307 0,-0.2078 0.0215,-0.5544 0.064,-1.0346 z m 1.9574,-5.152 c -0.1228,-0.2293 -0.2614,-0.4 -0.4054,-0.5066 -0.1494,-0.1119 -0.3039,-0.1652 -0.4694,-0.1652 -0.7946,0 -1.6586,0.6933 -2.5866,2.0852 -1.0239,1.536 -1.5358,2.832 -1.5358,3.8987 0,0.2614 0.0479,0.4587 0.1493,0.5973 0.0959,0.1332 0.2452,0.2027 0.4479,0.2027 0.5015,0 1.0826,-0.5332 1.7547,-1.5999 0.3733,-0.5814 0.8373,-1.4454 1.3921,-2.5815 0.3679,-0.7413 0.6346,-1.232 0.7999,-1.4772 0.0853,-0.1227 0.2347,-0.2721 0.4533,-0.4535 z m 8.0586,-1.3706 c 1.04,-2.1758 2.0265,-4.0694 2.9545,-5.6851 0.8961,-1.5628 1.5041,-2.5495 1.8295,-2.9549 0.3518,-0.4478 0.688,-0.6718 0.9972,-0.6718 0.1653,0 0.3201,0.0692 0.4533,0.2027 0.1281,0.1386 0.1868,0.2826 0.1868,0.4371 0,0.2401 -0.176,0.6455 -0.5281,1.2053 -1.5146,2.4375 -2.8959,4.9122 -4.1598,7.4239 -1.4775,2.9175 -2.2187,5.1095 -2.2187,6.5654 0,0.5921 0.1173,1.0613 0.3467,1.4028 0.0371,0.0746 0.2239,0.2398 0.5598,0.5012 0.0641,0.0479 0.0961,0.1548 0.0961,0.3093 0,0.208 -0.0853,0.4002 -0.2455,0.5709 -0.1599,0.1706 -0.3413,0.2559 -0.5386,0.2559 -0.2401,0 -0.5065,-0.144 -0.7999,-0.4266 -0.4161,-0.4161 -0.6667,-0.896 -0.7467,-1.4349 -0.032,-0.2293 -0.0694,-0.6613 -0.1119,-1.2852 -1.0933,1.9681 -2.128,2.9545 -3.1201,2.9545 -0.5706,0 -1.0239,-0.3251 -1.3706,-0.9705 -0.2293,-0.4267 -0.3413,-0.9066 -0.3413,-1.4505 0,-1.6215 0.5973,-3.2587 1.7867,-4.9014 1.1838,-1.6268 2.4531,-2.4373 3.8132,-2.4373 0.3733,0 0.7628,0.1279 1.1574,0.3892 z m -0.5281,1.2853 c -0.2826,-0.1973 -0.5278,-0.2985 -0.7359,-0.2985 -0.8802,0 -1.7121,0.5386 -2.5013,1.6106 -1.0346,1.4026 -1.552,2.7519 -1.552,4.0533 0,0.1599 0.0321,0.3039 0.0959,0.4425 0.1227,0.2613 0.3146,0.3895 0.5655,0.3895 0.3679,0 0.8107,-0.3521 1.3385,-1.0613 0.6987,-0.9389 1.3493,-2.0427 1.9519,-3.3228 0.2081,-0.4371 0.4108,-0.8745 0.6134,-1.3119 0,0 0.0428,-0.1015 0.1333,-0.2987 z m 6.656,-1.5466 c 0.176,0 0.32,0.0694 0.4374,0.2027 0.0799,0.1173 0.1227,0.2293 0.1227,0.3466 0,0.1866 -0.1494,0.4961 -0.4532,0.9386 -1.0775,1.6747 -1.8508,3.056 -2.304,4.1389 -0.4907,1.1145 -0.9227,2.2612 -1.296,3.4398 -0.1656,0.5227 -0.4266,0.7841 -0.7787,0.7841 -0.2081,0 -0.3733,-0.0854 -0.5015,-0.2509 -0.1119,-0.1332 -0.1706,-0.2826 -0.1706,-0.4371 0,-0.3146 0.3308,-1.3547 0.9975,-3.1255 0.5224,-1.3972 1.3598,-2.9438 2.528,-4.6292 0.3733,-0.5548 0.6559,-0.9227 0.8424,-1.1092 0.1868,-0.1973 0.3787,-0.2988 0.576,-0.2988 z m 2.9599,-5.792 c 0.4695,0 0.7042,0.2401 0.7042,0.72 0,0.4373 -0.2294,0.9226 -0.688,1.4561 -0.4374,0.512 -0.8586,0.7679 -1.264,0.7679 -0.1973,0 -0.3574,-0.0745 -0.4853,-0.2185 -0.1227,-0.1389 -0.1868,-0.3042 -0.1868,-0.5015 0,-0.5014 0.2776,-1.0346 0.8266,-1.5999 0.4054,-0.4161 0.7736,-0.6241 1.0933,-0.6241 z m 4.3308,4.8001 c 0.6452,0 1.1305,0.1171 1.4505,0.3464 0.3254,0.2296 0.4853,0.576 0.4853,1.0508 0,0.6135 -0.2293,1.2107 -0.688,1.7867 -0.4374,0.544 -1.0933,0.9814 -1.9678,1.3173 -0.4748,0.176 -0.8801,0.2667 -1.2002,0.2667 -0.4371,0 -0.6559,-0.1973 -0.6559,-0.5867 0,-0.2614 0.1227,-0.4587 0.3733,-0.5973 0.0641,-0.032 0.4161,-0.1227 1.0613,-0.2667 0.3841,-0.0854 0.7362,-0.2665 1.0562,-0.5494 0.2826,-0.2398 0.4212,-0.5012 0.4212,-0.7838 0,-0.2188 -0.064,-0.3787 -0.1868,-0.4856 -0.1224,-0.1012 -0.3092,-0.1544 -0.5598,-0.1544 -0.6027,0 -1.264,0.2452 -1.9948,0.7304 -0.8373,0.5548 -1.2585,1.2056 -1.2585,1.9628 0,0.5439 0.2718,1.216 0.816,2.0267 0.6078,0.8853 0.912,1.6319 0.912,2.2453 0,0.9173 -0.4054,1.632 -1.2161,2.1493 -0.4961,0.3254 -1.0613,0.4853 -1.696,0.4853 -0.9972,0 -1.7546,-0.3572 -2.2719,-1.0667 -0.3626,-0.5119 -0.544,-1.1146 -0.544,-1.8133 0,-0.8107 0.208,-1.4933 0.6185,-2.0427 0.2667,-0.3679 0.5443,-0.5493 0.8374,-0.5493 0.2559,0 0.3894,0.1068 0.3894,0.3146 0,0.0802 -0.0481,0.2081 -0.144,0.3733 -0.2401,0.4482 -0.3574,0.9763 -0.3574,1.5789 0,0.512 0.1814,0.944 0.544,1.296 0.3254,0.3147 0.6933,0.4692 1.1041,0.4692 0.4053,0 0.7253,-0.1333 0.9547,-0.4054 0.1865,-0.2293 0.2772,-0.5224 0.2772,-0.8745 0,-0.4374 -0.2452,-1.0026 -0.7413,-1.7013 -0.6774,-0.9547 -1.0187,-1.8241 -1.0187,-2.6079 0,-1.04 0.5655,-1.9573 1.7013,-2.7575 1.1041,-0.7733 2.272,-1.1572 3.4988,-1.1572 z m 5.0664,0.9919 c 0.176,0 0.32,0.0694 0.4374,0.2027 0.0799,0.1173 0.1227,0.2293 0.1227,0.3466 0,0.1866 -0.1494,0.4961 -0.4533,0.9386 -1.0774,1.6747 -1.8507,3.056 -2.304,4.1389 -0.4906,1.1145 -0.9226,2.2612 -1.296,3.4398 -0.1655,0.5227 -0.4266,0.7841 -0.7786,0.7841 -0.2081,0 -0.3734,-0.0854 -0.5015,-0.2509 -0.1119,-0.1332 -0.1706,-0.2826 -0.1706,-0.4371 0,-0.3146 0.3308,-1.3547 0.9975,-3.1255 0.5224,-1.3972 1.3598,-2.9438 2.5279,-4.6292 0.3733,-0.5548 0.656,-0.9227 0.8425,-1.1092 0.1868,-0.1973 0.3787,-0.2988 0.576,-0.2988 z m 2.9599,-5.792 c 0.4694,0 0.7041,0.2401 0.7041,0.72 0,0.4373 -0.2293,0.9226 -0.6879,1.4561 -0.4374,0.512 -0.8586,0.7679 -1.264,0.7679 -0.1973,0 -0.3574,-0.0745 -0.4853,-0.2185 -0.1227,-0.1389 -0.1868,-0.3042 -0.1868,-0.5015 0,-0.5014 0.2775,-1.0346 0.8266,-1.5999 0.4053,-0.4161 0.7736,-0.6241 1.0933,-0.6241 z m 8.4906,9.136 c 0.5653,0 0.8482,0.224 0.8482,0.6826 0,0.3467 -0.2614,0.608 -0.7895,0.7841 -0.9014,0.32 -1.3547,0.9014 -1.3547,1.7334 0,0.6667 0.2614,1.1891 0.7841,1.5624 0.4479,0.3147 1.0134,0.4694 1.7013,0.4694 1.3814,0 2.5867,-0.3999 3.6159,-1.2053 0.6455,-0.5119 0.9706,-1.1573 0.9706,-1.936 0,-0.4799 -0.0958,-0.9119 -0.2826,-1.3014 -0.1973,-0.3946 -0.5012,-0.8958 -0.9065,-1.4984 -0.6242,-0.9388 -1.152,-1.7921 -1.5786,-2.5654 -0.4802,-0.8535 -0.72,-1.6959 -0.72,-2.5174 0,-1.9519 0.9652,-3.776 2.8904,-5.472 1.0188,-0.8853 2.1442,-1.6053 3.3707,-2.16 1.0188,-0.4479 1.9999,-0.6718 2.9492,-0.6718 0.6134,0 1.1361,0.1599 1.5627,0.4799 0.5173,0.3841 0.7787,0.9068 0.7787,1.5681 0,1.0451 -0.5598,2.1705 -1.6852,3.3758 -1.0613,1.1361 -2.304,2.0639 -3.7173,2.7839 -0.7096,0.3521 -1.2428,0.5281 -1.6107,0.5281 -0.2401,0 -0.4533,-0.0961 -0.6401,-0.2934 -0.1227,-0.1386 -0.1865,-0.288 -0.1865,-0.4533 0,-0.3892 0.3413,-0.6987 1.0293,-0.9385 1.2586,-0.4482 2.3731,-1.0775 3.3386,-1.8935 1.2478,-1.0398 1.872,-1.952 1.872,-2.7307 0,-0.3038 -0.1227,-0.5493 -0.3733,-0.7358 -0.1973,-0.144 -0.432,-0.2186 -0.7041,-0.2186 -0.7146,0 -1.6107,0.2772 -2.6932,0.8266 -1.4508,0.7413 -2.5974,1.696 -3.4294,2.8638 -0.7254,1.0134 -1.0879,1.9948 -1.0879,2.9549 0,0.6984 0.1919,1.4184 0.5814,2.16 0.3197,0.5918 0.7359,1.2639 1.2373,2.016 0.4799,0.7197 0.8853,1.3864 1.2158,1.9998 0.3895,0.7308 0.5814,1.4134 0.5814,2.048 0,1.232 -0.7039,2.3199 -2.1172,3.2692 -1.2002,0.7949 -2.56,1.1895 -4.0748,1.1895 -1.4933,0 -2.6612,-0.4108 -3.5093,-1.2266 -0.6347,-0.6188 -0.9547,-1.3388 -0.9547,-2.1495 0,-0.9065 0.3041,-1.6693 0.9122,-2.2825 0.3679,-0.3733 0.8053,-0.6562 1.3064,-0.8427 0.3467,-0.1386 0.6347,-0.2027 0.8694,-0.2027 z m 10.4959,3.024 v 0.2773 c 0,0.2293 0.0586,0.4266 0.1706,0.5921 0.2614,0.3784 0.688,0.5706 1.2799,0.5706 1.3067,0 2.8108,-1.0026 4.5173,-3.0027 0.3041,-0.3413 0.5601,-0.512 0.7681,-0.512 0.112,0 0.2186,0.0533 0.3093,0.1707 0.0641,0.0853 0.0961,0.1599 0.0961,0.2347 0,0.4054 -0.5015,1.0933 -1.4987,2.0639 -0.784,0.7574 -1.616,1.3813 -2.5013,1.8612 -0.8855,0.4802 -1.7067,0.72 -2.4692,0.72 -0.7841,0 -1.3975,-0.2718 -1.8508,-0.8104 -0.3041,-0.3733 -0.4532,-0.8855 -0.4532,-1.5307 0,-1.76 0.8265,-3.4826 2.4851,-5.1681 1.3388,-1.3706 2.5121,-2.0585 3.5093,-2.0585 0.2721,0 0.5173,0.0853 0.7361,0.2505 0.2719,0.2189 0.4054,0.5069 0.4054,0.8587 0,0.5493 -0.256,1.2268 -0.7628,2.0321 -1.0505,1.6639 -2.6294,2.8159 -4.7412,3.4506 z m 0.352,-1.216 c 0.7251,-0.2506 1.3011,-0.5332 1.7173,-0.8479 0.7253,-0.5601 1.3013,-1.2002 1.728,-1.9094 0.1547,-0.2506 0.2347,-0.4748 0.2347,-0.6721 0,-0.2081 -0.1015,-0.3146 -0.2988,-0.3146 -0.2667,0 -0.6506,0.2026 -1.152,0.6134 -0.8906,0.72 -1.6373,1.76 -2.2292,3.1306 z m 11.0078,-2.1654 c 0.7733,-0.8 1.5466,-1.4772 2.3253,-2.016 0.9921,-0.688 1.7013,-1.0347 2.1333,-1.0347 0.1761,0 0.3521,0.0749 0.5174,0.2189 0.1868,0.1652 0.2826,0.3571 0.2826,0.576 0,0.2826 -0.224,0.72 -0.6718,1.3118 -0.864,1.1413 -1.52,2.1813 -1.9681,3.1147 -0.3946,0.8108 -0.5919,1.3601 -0.5919,1.6532 0,0.2829 0.1332,0.4215 0.4053,0.4215 0.5653,0 1.5092,-1.0026 2.8426,-3.0027 0.2719,-0.4054 0.5173,-0.608 0.7359,-0.608 0.2188,0 0.3308,0.1281 0.3308,0.3787 0,0.4053 -0.4,1.1786 -1.1894,2.3252 -0.688,1.0026 -1.408,1.7708 -2.1546,2.3094 -0.5332,0.3679 -1.0134,0.5494 -1.44,0.5494 -0.4533,0 -0.7733,-0.1919 -0.976,-0.576 -0.1227,-0.2401 -0.1868,-0.5066 -0.1868,-0.7946 0,-0.9281 0.3308,-1.984 0.9867,-3.168 0.1602,-0.2829 0.6293,-1.0828 1.4134,-2.4055 -2.1334,1.0721 -3.9359,3.392 -5.4079,6.9548 -0.1387,0.4051 -0.3467,0.6078 -0.6347,0.6078 -0.1973,0 -0.3626,-0.0692 -0.4853,-0.2027 -0.1281,-0.144 -0.1919,-0.3251 -0.1919,-0.5332 0,-0.3413 0.3305,-1.3173 0.9972,-2.9225 1.2373,-2.9761 2.3947,-5.4987 3.4665,-7.5628 1.0721,-2.0852 2.2615,-4.2452 3.568,-6.4852 0.3149,-0.5388 0.5601,-0.9068 0.7361,-1.0933 0.1814,-0.1868 0.368,-0.2826 0.5706,-0.2826 0.1868,0 0.3521,0.1012 0.4853,0.2985 0.1066,0.144 0.1602,0.3146 0.1602,0.5014 0,0.2934 -0.1656,0.6826 -0.5015,1.1733 -1.1199,1.7388 -2.2399,3.6479 -3.3545,5.7334 -1.1948,2.2291 -1.9307,3.7491 -2.2028,4.5598 z m 10.7788,3.7973 c -0.3413,0.608 -0.6826,1.1148 -1.0134,1.5361 -0.656,0.8107 -1.3065,1.216 -1.952,1.216 -0.5652,0 -1.0026,-0.2667 -1.3118,-0.8002 -0.1973,-0.3413 -0.2988,-0.7466 -0.2988,-1.2158 0,-1.1574 0.3628,-2.4321 1.0933,-3.8293 0.8161,-1.5574 1.7975,-2.7468 2.9441,-3.5841 0.7466,-0.5386 1.472,-0.8105 2.1705,-0.8105 0.4373,0 0.8053,0.1333 1.0987,0.4051 0.2508,0.2401 0.3733,0.5122 0.3733,0.8161 0,0.2293 -0.0907,0.5494 -0.2665,0.9547 0.1599,0.2186 0.2345,0.4108 0.2345,0.5814 0,0.2186 -0.144,0.576 -0.4371,1.0772 -0.2988,0.5119 -0.6027,1.1894 -0.9015,2.0372 -0.3254,0.8961 -0.4853,1.6161 -0.4853,2.16 0,0.4374 0.1279,0.7949 0.3892,1.0775 0.0749,0.0745 0.288,0.1919 0.6401,0.3625 0.2614,0.1228 0.3946,0.3416 0.3946,0.6563 0,0.1972 -0.0746,0.3571 -0.2186,0.4852 -0.1601,0.1333 -0.3413,0.2027 -0.5493,0.2027 -0.5652,0 -1.0508,-0.2559 -1.4613,-0.7628 -0.3362,-0.4053 -0.5068,-0.9173 -0.5068,-1.5307 0,-0.2078 0.0215,-0.5544 0.0641,-1.0346 z m 1.9573,-5.152 c -0.1228,-0.2293 -0.2614,-0.4 -0.4054,-0.5066 -0.1494,-0.1119 -0.3039,-0.1652 -0.4694,-0.1652 -0.7945,0 -1.6585,0.6933 -2.5866,2.0852 -1.0239,1.536 -1.5358,2.832 -1.5358,3.8987 0,0.2614 0.0479,0.4587 0.1494,0.5973 0.0958,0.1332 0.2452,0.2027 0.4478,0.2027 0.5015,0 1.0826,-0.5332 1.7547,-1.5999 0.3733,-0.5814 0.8373,-1.4454 1.3921,-2.5815 0.3679,-0.7413 0.6347,-1.232 0.7999,-1.4772 0.0853,-0.1227 0.2347,-0.2721 0.4533,-0.4535 z m 7.4718,-2.3253 c -0.6772,1.0508 -1.3119,2.2349 -1.8879,3.536 -0.8265,1.8615 -1.2427,3.2479 -1.2427,4.1655 0,0.2611 0.0533,0.4586 0.1653,0.5972 0.1069,0.1333 0.2721,0.2027 0.4907,0.2027 0.5227,0 1.1574,-0.4907 1.8986,-1.4666 0.4694,-0.6081 0.8856,-1.2107 1.2535,-1.8133 0.1973,-0.3467 0.4158,-0.5174 0.6452,-0.5174 0.1386,0 0.2559,0.0479 0.3466,0.1386 0.0854,0.0961 0.1282,0.192 0.1282,0.2827 0,0.3841 -0.5069,1.2481 -1.52,2.5812 -1.2106,1.5948 -2.3147,2.3947 -3.3174,2.3947 -0.5334,0 -0.9759,-0.2452 -1.328,-0.7359 -0.2185,-0.3095 -0.3305,-0.7574 -0.3305,-1.328 0,-1.264 0.3679,-2.7306 1.1038,-4.4107 0.176,-0.4159 0.6721,-1.4239 1.4774,-3.0186 -0.2826,0.0799 -0.5014,0.1173 -0.6508,0.1173 -0.2239,0 -0.4159,-0.0533 -0.5865,-0.1547 -0.2347,-0.1492 -0.3521,-0.3306 -0.3521,-0.5494 0,-0.2611 0.1494,-0.4691 0.4533,-0.6239 0.0853,-0.0425 0.4748,-0.1066 1.1628,-0.2027 0.2506,-0.0425 0.6185,-0.1386 1.0987,-0.2934 0.3679,-0.6613 0.9706,-1.5519 1.8025,-2.6773 0.4587,-0.6239 0.7787,-1.0346 0.9547,-1.2212 0.2506,-0.2613 0.4695,-0.3894 0.656,-0.3894 0.1386,0 0.2721,0.0748 0.4053,0.2188 0.1282,0.1332 0.1919,0.2718 0.1919,0.4053 0,0.2719 -0.2931,0.8054 -0.8745,1.6053 -0.3894,0.5227 -0.672,0.9439 -0.864,1.264 1.1413,-0.3039 1.9628,-0.4533 2.4534,-0.4533 0.5653,0 0.8479,0.2398 0.8479,0.72 0,0.2398 -0.0961,0.4159 -0.2934,0.5332 -0.1066,0.0587 -0.3733,0.112 -0.8107,0.1548 -0.1758,-0.0108 -0.9544,0.1865 -2.3412,0.5814 -0.384,0.1173 -0.7628,0.2344 -1.1361,0.3571 z m 21.1572,1.4347 c -2.3734,0.4694 -4.3574,1.0241 -5.9572,1.6588 -0.9601,1.4026 -2.016,3.0932 -3.1629,5.0612 l -0.832,1.4505 c -0.144,0.2614 -0.3679,0.6401 -0.6718,1.1254 -0.3362,0.576 -0.6829,0.864 -1.0508,0.864 -0.1973,0 -0.3626,-0.0799 -0.5012,-0.2347 -0.1335,-0.1386 -0.2027,-0.288 -0.2027,-0.4533 0,-0.2934 0.3892,-1.1199 1.1733,-2.4851 0.4266,-0.7416 1.0721,-1.7867 1.9361,-3.1414 0.3359,-0.5227 0.5972,-0.9493 0.7999,-1.2801 -0.6293,0.176 -1.1999,0.3787 -1.7226,0.608 -0.2509,0.112 -0.4587,0.1707 -0.6242,0.1707 -0.2078,0 -0.3679,-0.0907 -0.4853,-0.2826 -0.0799,-0.112 -0.1225,-0.2455 -0.1225,-0.4054 0,-0.352 0.1225,-0.6026 0.3734,-0.7466 0.405,-0.2506 1.1358,-0.5386 2.1866,-0.8586 0.7838,-0.2506 1.4026,-0.4802 1.8612,-0.688 0.2186,-0.2721 0.7892,-1.0667 1.7173,-2.3893 0.3999,-0.5707 1.5199,-1.9253 3.376,-4.0587 1.3334,-1.5627 2.7094,-3.0186 4.1278,-4.3628 0.8215,-0.7892 1.4508,-1.1837 1.8882,-1.1837 0.2718,0 0.5066,0.1065 0.7038,0.3251 0.1656,0.1973 0.2509,0.4161 0.2509,0.6559 0,0.2934 -0.144,0.8054 -0.4374,1.5307 -0.496,1.2856 -0.9759,2.6507 -1.4346,4.112 -0.3949,1.2906 -0.6613,2.2827 -0.7948,2.9707 0.1868,0 0.3095,-0.005 0.3733,-0.0159 0.3042,-0.0108 0.5494,-0.0161 0.7466,-0.0161 0.6027,0 0.9068,0.2293 0.9068,0.6879 0,0.1973 -0.064,0.3949 -0.1919,0.5868 -0.1335,0.1919 -0.2775,0.3093 -0.4481,0.3521 -0.0587,0.0212 -0.2293,0.0266 -0.512,0.0266 -0.5918,0 -1.0292,0.0371 -1.3226,0.112 -0.2506,0.7412 -0.6454,2.6294 -1.184,5.6747 -0.2826,2.0211 -0.4159,3.2584 -0.4054,3.7173 0,0.7518 -0.2239,1.1251 -0.6772,1.1251 -0.352,0 -0.6293,-0.1812 -0.832,-0.5494 -0.144,-0.2506 -0.2188,-0.5865 -0.2188,-1.0131 0,-1.44 0.2614,-3.376 0.7787,-5.8133 0.2667,-1.2268 0.464,-2.1761 0.5921,-2.8374 z m 0.432,-1.6852 c 0.0959,-0.3042 0.3306,-1.1095 0.7093,-2.4268 0.0907,-0.3413 0.3305,-1.0239 0.7092,-2.0426 0.3787,-1.0559 0.6829,-1.8987 0.9068,-2.5334 -0.6667,0.4482 -1.3442,1.0401 -2.0321,1.7813 -2.4532,2.6453 -4.1865,4.8053 -5.1999,6.4854 0.3895,-0.0961 1.216,-0.3308 2.4854,-0.7041 0.3679,-0.1066 1.1733,-0.2931 2.4213,-0.5598 z m 5.3065,5.1253 c -0.3146,0.8107 -0.5493,1.4666 -0.7041,1.9678 -0.1545,0.4961 -0.2347,0.8481 -0.2347,1.0454 0,0.2614 0.1227,0.3895 0.3733,0.3895 0.3733,0 0.8589,-0.3521 1.4508,-1.0616 0.2826,-0.3467 0.6987,-0.9652 1.2481,-1.8612 0.2185,-0.3572 0.4478,-0.5332 0.6825,-0.5332 0.2719,0 0.4054,0.1278 0.4054,0.3892 0,0.4481 -0.5173,1.3547 -1.5466,2.7201 -1.072,1.4239 -2.0642,2.1385 -2.9815,2.1385 -0.3945,0 -0.7146,-0.1653 -0.9652,-0.5012 -0.176,-0.2401 -0.2667,-0.5281 -0.2667,-0.8748 0,-0.5814 0.176,-1.3867 0.5332,-2.4159 0.3521,-1.0293 0.8802,-2.2828 1.5789,-3.7599 1.7918,-3.7602 3.6213,-6.8533 5.4879,-9.2906 1.4879,-1.9573 2.7252,-2.9335 3.7065,-2.9335 0.3093,0 0.5653,0.1173 0.7629,0.3574 0.2077,0.2401 0.3146,0.5173 0.3146,0.8266 0,1.4615 -1.3014,3.8826 -3.9093,7.2748 -1.1627,1.5092 -2.5602,3.0186 -4.1867,4.5278 -0.4266,0.3946 -1.008,0.9281 -1.7493,1.5948 z m 1.1038,-2.4588 c 2.1654,-1.8558 4.1069,-4.1973 5.8133,-7.0345 0.8856,-1.4666 1.328,-2.4426 1.328,-2.9228 0,-0.2293 -0.1012,-0.3412 -0.2984,-0.3412 -0.5709,0 -1.6107,1.1412 -3.1255,3.4239 -1.2478,1.872 -2.4852,4.1653 -3.7174,6.8746 z m 7.776,5.0613 c -0.3413,0.608 -0.6826,1.1148 -1.0134,1.5361 -0.6559,0.8107 -1.3065,1.216 -1.9519,1.216 -0.5652,0 -1.0026,-0.2667 -1.3119,-0.8002 -0.1973,-0.3413 -0.2988,-0.7466 -0.2988,-1.2158 0,-1.1574 0.3629,-2.4321 1.0934,-3.8293 0.8161,-1.5574 1.7974,-2.7468 2.944,-3.5841 0.7467,-0.5386 1.4721,-0.8105 2.1705,-0.8105 0.4374,0 0.8053,0.1333 1.0987,0.4051 0.2509,0.2401 0.3734,0.5122 0.3734,0.8161 0,0.2293 -0.0908,0.5494 -0.2665,0.9547 0.1599,0.2186 0.2344,0.4108 0.2344,0.5814 0,0.2186 -0.144,0.576 -0.4371,1.0772 -0.2988,0.5119 -0.6026,1.1894 -0.9014,2.0372 -0.3254,0.8961 -0.4853,1.6161 -0.4853,2.16 0,0.4374 0.1279,0.7949 0.3892,1.0775 0.0748,0.0745 0.288,0.1919 0.6401,0.3625 0.2613,0.1228 0.3946,0.3416 0.3946,0.6563 0,0.1972 -0.0746,0.3571 -0.2186,0.4852 -0.1602,0.1333 -0.3413,0.2027 -0.5494,0.2027 -0.5652,0 -1.0508,-0.2559 -1.4612,-0.7628 -0.3362,-0.4053 -0.5068,-0.9173 -0.5068,-1.5307 0,-0.2078 0.0215,-0.5544 0.064,-1.0346 z m 1.9573,-5.152 c -0.1227,-0.2293 -0.2613,-0.4 -0.4053,-0.5066 -0.1494,-0.1119 -0.3039,-0.1652 -0.4694,-0.1652 -0.7946,0 -1.6586,0.6933 -2.5866,2.0852 -1.0239,1.536 -1.5359,2.832 -1.5359,3.8987 0,0.2614 0.0479,0.4587 0.1494,0.5973 0.0958,0.1332 0.2452,0.2027 0.4479,0.2027 0.5015,0 1.0826,-0.5332 1.7546,-1.5999 0.3734,-0.5814 0.8374,-1.4454 1.3921,-2.5815 0.368,-0.7413 0.6347,-1.232 0.8,-1.4772 0.0853,-0.1227 0.2347,-0.2721 0.4532,-0.4535 z m 4.4054,2.5282 c 0.8745,-0.9176 1.6426,-1.6376 2.3145,-2.1549 1.0133,-0.7838 1.6908,-1.1732 2.0321,-1.1732 0.1707,0 0.3147,0.064 0.4425,0.1868 0.1122,0.1119 0.1706,0.2398 0.1706,0.3733 0,0.1973 -0.1811,0.5173 -0.549,0.9652 -0.5602,0.7041 -0.9494,1.3068 -1.1682,1.8028 2.4426,-2.4321 4.112,-3.6482 5.0134,-3.6482 0.1865,0 0.3466,0.0587 0.4853,0.1707 0.144,0.1281 0.2185,0.2829 0.2185,0.4694 0,0.2934 -0.2239,0.6667 -0.6772,1.1253 -1.9786,2.0319 -2.9707,3.7012 -2.9707,5.0026 0,0.5335 0.0907,0.9119 0.2775,1.1413 l 0.4,0.5173 c 0.0799,0.0907 0.1224,0.2134 0.1224,0.3574 0,0.1653 -0.0691,0.3254 -0.2026,0.4694 -0.1545,0.1653 -0.3306,0.2506 -0.5278,0.2506 -0.3413,0 -0.656,-0.2185 -0.9494,-0.6613 -0.352,-0.5227 -0.5281,-1.1412 -0.5281,-1.8507 0,-0.9547 0.2722,-1.9146 0.8107,-2.8905 0.192,-0.3467 0.5015,-0.8053 0.9386,-1.3813 -0.8853,0.6718 -1.7813,1.5944 -2.6986,2.768 -0.6185,0.7945 -1.1786,1.6852 -1.6747,2.6665 -0.2398,0.4746 -0.5224,0.7093 -0.8425,0.7093 -0.3574,0 -0.5334,-0.1973 -0.5334,-0.5973 0,-0.4266 0.2934,-1.3119 0.8747,-2.6507 0.3359,-0.7625 0.7467,-1.5678 1.2374,-2.4159 -1.7813,1.3813 -3.1201,3.2533 -4.0162,5.616 -0.2239,0.5227 -0.5119,0.784 -0.8798,0.784 -0.1653,0 -0.2988,-0.064 -0.4054,-0.1868 -0.112,-0.1278 -0.1706,-0.2772 -0.1706,-0.4532 0,-0.6188 0.3413,-1.728 1.0292,-3.3333 0.7146,-1.7014 1.5253,-3.2321 2.4268,-4.5867 0.6239,-0.9494 1.1092,-1.4239 1.4505,-1.4239 0.3146,0 0.4694,0.1653 0.4694,0.5012 0,0.144 -0.1919,0.5068 -0.576,1.0933 -0.6772,1.0933 -1.1254,1.904 -1.3439,2.4375 z"
         style="fill:#009035;fill-rule:evenodd"
         id="path844" />
      <path
         d="m 379.542,573.5676 c 0.1761,0 0.3201,0.0694 0.4374,0.2027 0.08,0.1173 0.1228,0.2293 0.1228,0.3466 0,0.1866 -0.1494,0.4961 -0.4533,0.9386 -1.0774,1.6747 -1.8507,3.056 -2.304,4.1389 -0.4907,1.1145 -0.9227,2.2612 -1.296,3.4398 -0.1655,0.5227 -0.4266,0.7841 -0.7787,0.7841 -0.208,0 -0.3733,-0.0854 -0.5014,-0.2509 -0.112,-0.1332 -0.1707,-0.2826 -0.1707,-0.4371 0,-0.3146 0.3308,-1.3547 0.9976,-3.1255 0.5224,-1.3972 1.3597,-2.9438 2.5279,-4.6292 0.3733,-0.5548 0.6559,-0.9227 0.8424,-1.1092 0.1869,-0.1973 0.3788,-0.2988 0.576,-0.2988 z m 2.96,-5.792 c 0.4694,0 0.7041,0.2401 0.7041,0.72 0,0.4373 -0.2293,0.9226 -0.688,1.4561 -0.4373,0.512 -0.8586,0.7679 -1.2639,0.7679 -0.1973,0 -0.3575,-0.0745 -0.4853,-0.2185 -0.1228,-0.1389 -0.1868,-0.3042 -0.1868,-0.5015 0,-0.5014 0.2775,-1.0346 0.8266,-1.5999 0.4053,-0.4161 0.7735,-0.6241 1.0933,-0.6241 z"
         style="fill:#009035;fill-rule:evenodd"
         id="path846" />
    </g>
  </g>
</svg>
