<svg width="139" height="120" viewBox="0 0 139 120" fill="none" xmlns="http://www.w3.org/2000/svg">
<path fill-rule="evenodd" clip-rule="evenodd" d="M40.0391 0.517899C84.5012 19.0425 118.928 38.1872 89.1472 56.1344C107.22 35.1684 50.4868 40.6078 40.0391 0.517899V0.517899Z" fill="#65BC50"/>
<path fill-rule="evenodd" clip-rule="evenodd" d="M40.0391 0.517899C56.0141 36.4122 70.9025 37.5391 80.8638 46.0761C74.3555 47.4567 34.7141 48.8372 40.0391 0.517899Z" fill="#65BC50"/>
<path fill-rule="evenodd" clip-rule="evenodd" d="M99.8164 94.0107C55.3543 75.4861 20.9278 56.3414 50.7083 38.3943C32.6359 59.3603 89.3687 53.9208 99.8164 94.0107Z" fill="#00A859"/>
<path fill-rule="evenodd" clip-rule="evenodd" d="M99.8164 94.0107C83.8414 58.1165 68.953 56.9895 58.9917 48.4526C65.5 47.0719 105.141 45.6914 99.8164 94.0107Z" fill="#00A859"/>
<path d="M6.40919 100.316L2.53019 106.961H6.53259V108.15H0.992493V107.07L4.90279 100.427H1.10129V99.2368H6.40919V100.316V100.316ZM8.18759 99.2368H9.43869V108.15H8.18759V99.2368ZM8.79429 106.961H13.914V108.15H8.79429V106.961ZM8.79429 103.13H13.2382V104.319H8.79429V103.13ZM8.79429 99.2368H13.914V100.427H8.79429V99.2368ZM16.9414 108.15H15.6903V99.2368H16.9414V108.15ZM19.1466 99.2368H20.2806L24.6387 106.126L24.4922 106.285V99.2368H25.7308V108.143H24.5843L20.2387 101.358L20.3852 101.199V108.143H19.1466V99.2368ZM36.3698 99.2368H37.6209V108.15H36.3698V99.2368ZM31.3066 99.2368H32.5577V108.15H31.3066V99.2368ZM32.0849 103.166H37.033V104.354H32.0849V103.166ZM42.7761 108.242C42.1547 108.242 41.6066 108.106 41.1316 107.834C40.6588 107.562 40.2927 107.179 40.0332 106.681C39.7738 106.185 39.6441 105.61 39.6441 104.957V102.432C39.6441 101.777 39.7738 101.201 40.0332 100.705C40.2927 100.21 40.6588 99.8247 41.1316 99.5527C41.6066 99.2807 42.1547 99.1447 42.7761 99.1447C43.3954 99.1447 43.9436 99.2807 44.4185 99.5527C44.8914 99.8247 45.2596 100.21 45.519 100.705C45.7785 101.201 45.9082 101.777 45.9082 102.432V104.957C45.9082 105.61 45.7785 106.185 45.519 106.681C45.2596 107.179 44.8914 107.562 44.4185 107.834C43.9436 108.106 43.3954 108.242 42.7761 108.242ZM42.7761 107.009C43.1423 107.009 43.4666 106.926 43.7469 106.76C44.0273 106.595 44.2428 106.361 44.3955 106.055C44.5503 105.752 44.6256 105.4 44.6256 104.999V102.388C44.6256 101.988 44.5503 101.634 44.3955 101.331C44.2428 101.026 44.0273 100.791 43.7469 100.626C43.4666 100.461 43.1423 100.377 42.7761 100.377C42.4079 100.377 42.0836 100.461 41.8032 100.626C41.5229 100.791 41.3074 101.026 41.1547 101.331C40.9998 101.634 40.9245 101.988 40.9245 102.388V104.999C40.9245 105.4 40.9998 105.752 41.1547 106.055C41.3074 106.361 41.5229 106.595 41.8032 106.76C42.0836 106.926 42.4079 107.009 42.7761 107.009ZM47.8058 99.2368H49.0569V108.15H47.8058V99.2368ZM48.4314 106.961H53.5322V108.15H48.4314V106.961ZM56.252 108.15H55.0009V99.2368H56.252V108.15ZM61.1373 108.242C60.7084 108.242 60.3004 108.2 59.9176 108.118C59.5326 108.037 59.1748 107.915 58.8401 107.752C58.5074 107.587 58.1957 107.384 57.9069 107.139L58.6852 106.183C59.0242 106.476 59.3987 106.698 59.8067 106.844C60.2147 106.99 60.6582 107.064 61.1373 107.064C61.7817 107.064 62.2818 106.944 62.6374 106.706C62.9931 106.467 63.171 106.128 63.171 105.691V105.685C63.171 105.375 63.0915 105.128 62.9304 104.946C62.7672 104.764 62.56 104.63 62.3048 104.543C62.0495 104.455 61.719 104.373 61.3152 104.3C61.3026 104.296 61.288 104.294 61.2754 104.294C61.2608 104.294 61.2461 104.292 61.2336 104.287L61.1436 104.271C60.5452 104.168 60.0598 104.051 59.6874 103.923C59.3129 103.794 58.9928 103.559 58.7271 103.218C58.4614 102.877 58.3296 102.392 58.3296 101.762V101.756C58.3296 101.205 58.453 100.735 58.6999 100.343C58.9468 99.9544 59.3087 99.6552 59.7816 99.4523C60.2565 99.2472 60.8256 99.1447 61.493 99.1447C61.811 99.1447 62.1249 99.1803 62.4324 99.2493C62.7421 99.3184 63.0454 99.423 63.3467 99.559C63.6459 99.695 63.9409 99.8686 64.2317 100.078L63.5204 101.069C63.1814 100.821 62.8446 100.634 62.5056 100.509C62.1688 100.385 61.8319 100.323 61.493 100.323C60.8842 100.323 60.4092 100.444 60.0724 100.687C59.7355 100.929 59.5682 101.275 59.5682 101.72V101.726C59.5682 102.032 59.6539 102.273 59.8276 102.448C60.0013 102.624 60.2188 102.754 60.4783 102.837C60.7377 102.921 61.0976 103.009 61.56 103.099C61.5767 103.103 61.5913 103.105 61.606 103.107C61.6206 103.109 61.6353 103.114 61.652 103.118C61.6729 103.122 61.6939 103.126 61.719 103.13C61.7441 103.132 61.765 103.137 61.7859 103.141C62.3257 103.252 62.7755 103.383 63.1375 103.534C63.4994 103.685 63.8028 103.93 64.0455 104.266C64.2882 104.603 64.4096 105.064 64.4096 105.649V105.66C64.4096 106.204 64.2819 106.668 64.0246 107.055C63.7652 107.442 63.3927 107.735 62.9053 107.938C62.4157 108.141 61.8278 108.242 61.1373 108.242V108.242ZM67.4809 99.9669H68.7299V108.15H67.4809V99.9669ZM64.9598 99.2368H71.249V100.427H64.9598V99.2368ZM73.7261 108.15H72.475V99.2368H73.7261V108.15ZM78.8499 108.242C78.2327 108.242 77.6909 108.106 77.2222 107.832C76.7535 107.557 76.3916 107.168 76.1342 106.666C75.8769 106.164 75.7493 105.58 75.7493 104.919V102.473C75.7493 101.812 75.8769 101.228 76.1342 100.726C76.3916 100.224 76.7535 99.8351 77.2222 99.559C77.6909 99.2828 78.2327 99.1447 78.8499 99.1447C79.3604 99.1447 79.8312 99.2556 80.2601 99.4732C80.689 99.6908 81.0468 100 81.3355 100.402C81.6242 100.802 81.8188 101.266 81.9213 101.793H80.6388C80.5614 101.515 80.4317 101.266 80.2496 101.049C80.0676 100.829 79.8542 100.662 79.6094 100.542C79.3646 100.425 79.1115 100.364 78.8499 100.364C78.4859 100.364 78.1679 100.452 77.8938 100.628C77.6197 100.804 77.4063 101.051 77.2557 101.367C77.105 101.685 77.0297 102.053 77.0297 102.473V104.919C77.0297 105.336 77.105 105.704 77.2557 106.022C77.4063 106.342 77.6197 106.587 77.8938 106.76C78.1679 106.934 78.4859 107.022 78.8499 107.022C79.1157 107.022 79.3688 106.967 79.6136 106.857C79.8563 106.746 80.0676 106.582 80.2496 106.365C80.4317 106.149 80.5614 105.892 80.6388 105.593H81.9213C81.8188 106.12 81.6221 106.585 81.3313 106.984C81.0426 107.386 80.6827 107.696 80.2538 107.913C79.8249 108.133 79.3563 108.242 78.8499 108.242V108.242ZM88.3633 99.9669H89.6123V108.15H88.3633V99.9669ZM85.8422 99.2368H92.1314V100.427H85.8422V99.2368ZM98.4206 99.2368H99.6717V108.15H98.4206V99.2368ZM93.3574 99.2368H94.6085V108.15H93.3574V99.2368ZM94.1357 103.166H99.0838V104.354H94.1357V103.166ZM101.877 99.2368H103.128V108.15H101.877V99.2368ZM102.484 106.961H107.603V108.15H102.484V106.961ZM102.484 103.13H106.927V104.319H102.484V103.13ZM102.484 99.2368H107.603V100.427H102.484V99.2368ZM109.926 103.191H112.966C113.204 103.191 113.413 103.135 113.597 103.019C113.782 102.904 113.924 102.743 114.024 102.532C114.123 102.321 114.173 102.08 114.173 101.806C114.173 101.532 114.123 101.289 114.024 101.08C113.924 100.869 113.782 100.705 113.6 100.592C113.42 100.477 113.206 100.421 112.966 100.421H109.926V99.2305H112.917C113.432 99.2305 113.884 99.3372 114.275 99.5506C114.664 99.7619 114.968 100.063 115.181 100.454C115.397 100.844 115.503 101.295 115.503 101.806C115.503 102.316 115.395 102.766 115.179 103.158C114.962 103.547 114.658 103.848 114.269 104.061C113.878 104.273 113.428 104.379 112.917 104.379H109.926V103.191V103.191ZM109.38 99.2305H110.631V108.15H109.38V99.2305ZM112.353 104.103L113.597 103.823L115.878 108.15H114.395L112.353 104.103V104.103ZM119.686 99.2368H120.751L124.038 108.15H122.688L120.217 100.959L117.748 108.15H116.399L119.686 99.2368ZM117.914 105.005H122.602V106.193H117.914V105.005ZM126.029 103.503H128.879C129.149 103.503 129.385 103.44 129.59 103.312C129.795 103.187 129.952 103.007 130.065 102.775C130.178 102.54 130.235 102.273 130.235 101.971C130.235 101.664 130.178 101.394 130.065 101.162C129.952 100.929 129.795 100.747 129.59 100.62C129.385 100.49 129.149 100.427 128.879 100.427H126.029V99.2368H128.837C129.369 99.2368 129.835 99.3497 130.241 99.5778C130.645 99.8037 130.959 100.124 131.18 100.536C131.404 100.95 131.515 101.427 131.515 101.971C131.515 102.515 131.404 102.992 131.18 103.402C130.959 103.812 130.645 104.13 130.241 104.354C129.835 104.58 129.369 104.693 128.837 104.693H126.029V103.503V103.503ZM125.385 99.2368H126.636V108.15H125.385V99.2368ZM135.88 104.528V108.15H134.628V104.528L131.913 99.2368H133.304L135.254 103.258L137.202 99.2368H138.593L135.88 104.528Z" fill="#00A859"/>
<path d="M43.8021 112.379C43.0665 112.491 42.3854 112.636 41.757 112.813C41.6234 112.86 41.5218 112.885 41.4484 112.885C41.3637 112.885 41.2922 112.847 41.232 112.77C41.1963 112.725 41.1775 112.674 41.1775 112.616C41.1775 112.46 41.2922 112.345 41.5199 112.271C42.1295 112.087 42.8463 111.918 43.6742 111.763C44.709 111.575 45.7062 111.481 46.6601 111.481C46.9837 111.481 47.2001 111.502 47.3111 111.541C47.4145 111.579 47.4653 111.649 47.4653 111.75C47.4653 111.923 47.3393 112.023 47.0853 112.053C46.8652 112.074 46.5321 112.091 46.0862 112.102C45.2001 112.132 44.5942 112.187 44.2668 112.268C44.359 112.303 44.4042 112.362 44.4042 112.439C44.4042 112.52 44.3459 112.646 44.2292 112.819C43.5293 113.841 42.8633 114.999 42.2273 116.298C41.7419 117.282 41.3863 118.157 41.1624 118.921C41.1116 119.152 41.0232 119.268 40.8971 119.268C40.7843 119.268 40.6883 119.208 40.6112 119.092C40.5604 119.014 40.534 118.934 40.534 118.849C40.534 118.51 40.8576 117.688 41.503 116.379C41.915 115.538 42.2951 114.828 42.6431 114.253C42.7843 114.017 43.1192 113.472 43.6516 112.616L43.8021 112.379V112.379ZM45.5218 116.838C45.8811 116.452 46.2969 116.076 46.7673 115.707C46.9366 115.575 47.1172 115.451 47.3073 115.336C47.4032 115.28 47.4634 115.252 47.4898 115.252C47.5443 115.252 47.5989 115.291 47.6553 115.372C47.6873 115.415 47.7043 115.457 47.7043 115.492C47.7043 115.558 47.6346 115.649 47.4954 115.762C47.1229 116.059 46.9366 116.283 46.9366 116.433C46.9366 116.518 46.9837 116.559 47.0796 116.559C47.2358 116.559 47.5067 116.429 47.8886 116.168C47.9545 116.125 48.0091 116.102 48.0523 116.102C48.0824 116.102 48.1107 116.117 48.1408 116.147C48.1727 116.179 48.1897 116.215 48.1897 116.251C48.1897 116.362 48.0354 116.531 47.7287 116.761C47.407 117.003 47.1003 117.126 46.8106 117.126C46.6939 117.126 46.5867 117.094 46.4869 117.032C46.4023 116.981 46.3609 116.888 46.3609 116.757C46.3609 116.665 46.4004 116.559 46.4775 116.443C46.1859 116.648 45.8435 117.001 45.4484 117.502C45.2207 117.81 44.9949 118.19 44.7692 118.644C44.6845 118.813 44.5791 118.898 44.455 118.898C44.3176 118.898 44.2499 118.834 44.2499 118.706C44.2499 118.58 44.3571 118.245 44.5697 117.701C44.8877 116.894 45.2188 116.268 45.565 115.824C45.7776 115.547 45.9564 115.41 46.0994 115.41C46.1483 115.41 46.1916 115.425 46.2329 115.453C46.28 115.49 46.3044 115.536 46.3044 115.592C46.3044 115.647 46.2668 115.724 46.1934 115.824C46.1803 115.84 46.0824 115.965 45.9018 116.192C45.7362 116.409 45.6102 116.625 45.5218 116.838V116.838ZM49.5857 117.735C49.4653 117.95 49.3449 118.128 49.2282 118.277C48.9968 118.563 48.7673 118.706 48.5396 118.706C48.3402 118.706 48.1859 118.612 48.0768 118.424C48.0072 118.303 47.9714 118.16 47.9714 117.995C47.9714 117.587 48.0994 117.137 48.3571 116.644C48.645 116.095 48.9912 115.675 49.3957 115.379C49.6591 115.189 49.915 115.094 50.1614 115.094C50.3157 115.094 50.4455 115.141 50.549 115.237C50.6375 115.321 50.6807 115.417 50.6807 115.524C50.6807 115.605 50.6487 115.718 50.5867 115.861C50.6431 115.938 50.6694 116.006 50.6694 116.066C50.6694 116.143 50.6186 116.27 50.5152 116.446C50.4098 116.627 50.3026 116.866 50.1972 117.165C50.0824 117.481 50.026 117.735 50.026 117.927C50.026 118.081 50.0711 118.207 50.1633 118.307C50.1897 118.333 50.2649 118.375 50.3891 118.435C50.4813 118.478 50.5283 118.556 50.5283 118.667C50.5283 118.736 50.502 118.792 50.4512 118.838C50.3947 118.885 50.3308 118.909 50.2574 118.909C50.058 118.909 49.8867 118.819 49.7419 118.64C49.6233 118.497 49.5631 118.316 49.5631 118.1C49.5631 118.027 49.5707 117.904 49.5857 117.735V117.735ZM50.2762 115.918C50.2329 115.837 50.184 115.777 50.1332 115.739C50.0805 115.699 50.026 115.681 49.9676 115.681C49.6873 115.681 49.3825 115.925 49.0551 116.416C48.6939 116.958 48.5133 117.415 48.5133 117.792C48.5133 117.884 48.5302 117.953 48.566 118.002C48.5998 118.049 48.6525 118.074 48.724 118.074C48.9009 118.074 49.1059 117.886 49.343 117.509C49.4747 117.304 49.6384 116.999 49.8341 116.599C49.9639 116.337 50.058 116.164 50.1163 116.078C50.1464 116.034 50.1991 115.982 50.2762 115.918V115.918ZM53.1191 115.434C53.486 114.667 53.834 113.998 54.1614 113.428C54.4775 112.877 54.692 112.529 54.8068 112.386C54.9309 112.228 55.0495 112.149 55.1586 112.149C55.2169 112.149 55.2715 112.174 55.3185 112.221C55.3637 112.27 55.3844 112.32 55.3844 112.375C55.3844 112.46 55.3223 112.603 55.1981 112.8C54.6638 113.66 54.1765 114.533 53.7306 115.419C53.2094 116.448 52.9479 117.221 52.9479 117.735C52.9479 117.944 52.9893 118.11 53.0702 118.23C53.0833 118.256 53.1492 118.315 53.2677 118.407C53.2903 118.424 53.3016 118.461 53.3016 118.516C53.3016 118.589 53.2715 118.657 53.215 118.717C53.1586 118.778 53.0946 118.808 53.025 118.808C52.9403 118.808 52.8463 118.757 52.7428 118.657C52.596 118.51 52.5076 118.341 52.4794 118.151C52.4681 118.07 52.4549 117.918 52.4399 117.698C52.0542 118.392 51.6892 118.74 51.3392 118.74C51.1379 118.74 50.978 118.625 50.8557 118.397C50.7748 118.247 50.7353 118.078 50.7353 117.886C50.7353 117.314 50.946 116.736 51.3656 116.157C51.7832 115.583 52.231 115.297 52.7108 115.297C52.8425 115.297 52.9799 115.342 53.1191 115.434ZM52.9328 115.888C52.8331 115.818 52.7466 115.782 52.6732 115.782C52.3627 115.782 52.0692 115.972 51.7908 116.35C51.4258 116.845 51.2433 117.321 51.2433 117.78C51.2433 117.837 51.2546 117.888 51.2771 117.936C51.3204 118.029 51.3881 118.074 51.4766 118.074C51.6064 118.074 51.7626 117.95 51.9488 117.699C52.1953 117.368 52.4248 116.979 52.6374 116.527C52.7108 116.373 52.7823 116.219 52.8538 116.064C52.8538 116.064 52.8689 116.029 52.9008 115.959L52.9328 115.888V115.888ZM55.2809 115.342C55.343 115.342 55.3938 115.366 55.4352 115.413C55.4634 115.455 55.4785 115.494 55.4785 115.536C55.4785 115.602 55.4258 115.711 55.3186 115.867C54.9385 116.458 54.6657 116.945 54.5058 117.327C54.3327 117.72 54.1803 118.125 54.0486 118.54C53.9902 118.725 53.8981 118.817 53.7739 118.817C53.7005 118.817 53.6422 118.787 53.597 118.728C53.5575 118.681 53.5368 118.629 53.5368 118.574C53.5368 118.463 53.6535 118.096 53.8887 117.472C54.073 116.979 54.3684 116.433 54.7805 115.839C54.9122 115.643 55.0119 115.513 55.0777 115.447C55.1436 115.378 55.2113 115.342 55.2809 115.342ZM56.3251 113.299C56.4907 113.299 56.5735 113.383 56.5735 113.553C56.5735 113.707 56.4926 113.878 56.3308 114.066C56.1765 114.247 56.0279 114.337 55.8849 114.337C55.8153 114.337 55.7588 114.311 55.7137 114.26C55.6704 114.211 55.6478 114.153 55.6478 114.083C55.6478 113.906 55.7457 113.718 55.9394 113.519C56.0824 113.372 56.2123 113.299 56.3251 113.299V113.299ZM57.8529 114.992C58.0805 114.992 58.2517 115.033 58.3646 115.114C58.4794 115.195 58.5358 115.317 58.5358 115.485C58.5358 115.701 58.4549 115.912 58.2931 116.115C58.1388 116.307 57.9074 116.461 57.5989 116.58C57.4314 116.642 57.2884 116.674 57.1755 116.674C57.0213 116.674 56.9441 116.604 56.9441 116.467C56.9441 116.375 56.9874 116.305 57.0758 116.256C57.0984 116.245 57.2226 116.213 57.4502 116.162C57.5857 116.132 57.7099 116.068 57.8228 115.968C57.9225 115.884 57.9714 115.792 57.9714 115.692C57.9714 115.615 57.9488 115.558 57.9055 115.521C57.8623 115.485 57.7964 115.466 57.708 115.466C57.4954 115.466 57.2621 115.553 57.0043 115.724C56.7089 115.92 56.5603 116.149 56.5603 116.416C56.5603 116.608 56.6562 116.845 56.8482 117.131C57.0626 117.443 57.1699 117.707 57.1699 117.923C57.1699 118.247 57.0269 118.499 56.7409 118.682C56.5659 118.796 56.3665 118.853 56.1426 118.853C55.7908 118.853 55.5236 118.727 55.3411 118.476C55.2132 118.296 55.1492 118.083 55.1492 117.837C55.1492 117.551 55.2226 117.31 55.3674 117.116C55.4615 116.986 55.5594 116.922 55.6628 116.922C55.7531 116.922 55.8002 116.96 55.8002 117.033C55.8002 117.062 55.7832 117.107 55.7494 117.165C55.6647 117.323 55.6233 117.509 55.6233 117.722C55.6233 117.903 55.6873 118.055 55.8152 118.179C55.93 118.29 56.0598 118.345 56.2047 118.345C56.3477 118.345 56.4606 118.298 56.5415 118.202C56.6073 118.121 56.6393 118.017 56.6393 117.893C56.6393 117.739 56.5528 117.54 56.3778 117.293C56.1388 116.956 56.0184 116.65 56.0184 116.373C56.0184 116.006 56.2179 115.682 56.6186 115.4C57.0081 115.127 57.4201 114.992 57.8529 114.992V114.992ZM59.6402 115.342C59.7023 115.342 59.7531 115.366 59.7945 115.413C59.8227 115.455 59.8378 115.494 59.8378 115.536C59.8378 115.602 59.7851 115.711 59.6779 115.867C59.2978 116.458 59.025 116.945 58.8651 117.327C58.692 117.72 58.5396 118.125 58.4079 118.54C58.3495 118.725 58.2574 118.817 58.1332 118.817C58.0598 118.817 58.0015 118.787 57.9563 118.728C57.9168 118.681 57.8961 118.629 57.8961 118.574C57.8961 118.463 58.0128 118.096 58.248 117.472C58.4323 116.979 58.7277 116.433 59.1398 115.839C59.2715 115.643 59.3712 115.513 59.437 115.447C59.5029 115.378 59.5706 115.342 59.6402 115.342ZM60.6844 113.299C60.85 113.299 60.9328 113.383 60.9328 113.553C60.9328 113.707 60.8519 113.878 60.6901 114.066C60.5358 114.247 60.3872 114.337 60.2442 114.337C60.1746 114.337 60.1181 114.311 60.073 114.26C60.0297 114.211 60.0071 114.153 60.0071 114.083C60.0071 113.906 60.105 113.718 60.2987 113.519C60.4417 113.372 60.5716 113.299 60.6844 113.299V113.299ZM63.6797 116.522C63.8791 116.522 63.9789 116.601 63.9789 116.762C63.9789 116.885 63.8867 116.977 63.7004 117.039C63.3824 117.152 63.2225 117.357 63.2225 117.651C63.2225 117.886 63.3147 118.07 63.4991 118.202C63.6571 118.313 63.8566 118.367 64.0993 118.367C64.5866 118.367 65.0118 118.226 65.3749 117.942C65.6026 117.762 65.7173 117.534 65.7173 117.259C65.7173 117.09 65.6835 116.937 65.6176 116.8C65.548 116.661 65.4408 116.484 65.2978 116.271C65.0776 115.94 64.8914 115.639 64.7409 115.366C64.5715 115.065 64.4869 114.768 64.4869 114.478C64.4869 113.79 64.8274 113.146 65.5066 112.548C65.866 112.236 66.263 111.982 66.6957 111.786C67.0551 111.628 67.4012 111.549 67.7361 111.549C67.9525 111.549 68.1369 111.605 68.2874 111.718C68.4699 111.854 68.5621 112.038 68.5621 112.271C68.5621 112.64 68.3646 113.037 67.9676 113.462C67.5932 113.863 67.1548 114.19 66.6562 114.444C66.4059 114.569 66.2178 114.631 66.088 114.631C66.0033 114.631 65.9281 114.597 65.8622 114.527C65.8189 114.478 65.7964 114.426 65.7964 114.367C65.7964 114.23 65.9168 114.121 66.1595 114.036C66.6035 113.878 66.9967 113.656 67.3373 113.368C67.7775 113.001 67.9977 112.68 67.9977 112.405C67.9977 112.298 67.9544 112.211 67.866 112.145C67.7964 112.094 67.7136 112.068 67.6176 112.068C67.3655 112.068 67.0494 112.166 66.6675 112.36C66.1557 112.621 65.7512 112.958 65.4577 113.37C65.2018 113.728 65.0739 114.074 65.0739 114.413C65.0739 114.659 65.1416 114.913 65.279 115.174C65.3918 115.383 65.5386 115.62 65.7155 115.886C65.8848 116.14 66.0278 116.375 66.1444 116.591C66.2818 116.849 66.3495 117.09 66.3495 117.314C66.3495 117.748 66.1012 118.132 65.6026 118.467C65.1792 118.747 64.6995 118.887 64.1651 118.887C63.6383 118.887 63.2263 118.742 62.9271 118.454C62.7032 118.236 62.5903 117.982 62.5903 117.696C62.5903 117.376 62.6976 117.107 62.9121 116.89C63.0419 116.759 63.1962 116.659 63.373 116.593C63.4953 116.544 63.5969 116.522 63.6797 116.522V116.522ZM67.3824 117.588V117.686C67.3824 117.767 67.4031 117.837 67.4426 117.895C67.5348 118.029 67.6853 118.096 67.8941 118.096C68.3551 118.096 68.8857 117.743 69.4877 117.037C69.595 116.917 69.6853 116.857 69.7587 116.857C69.7982 116.857 69.8358 116.875 69.8678 116.917C69.8904 116.947 69.9017 116.973 69.9017 116.999C69.9017 117.142 69.7248 117.385 69.373 117.728C69.0964 117.995 68.8029 118.215 68.4906 118.384C68.1782 118.554 67.8885 118.638 67.6195 118.638C67.3429 118.638 67.1265 118.542 66.9666 118.352C66.8593 118.221 66.8067 118.04 66.8067 117.812C66.8067 117.191 67.0983 116.584 67.6834 115.989C68.1557 115.506 68.5696 115.263 68.9214 115.263C69.0174 115.263 69.1039 115.293 69.1811 115.351C69.277 115.429 69.3241 115.53 69.3241 115.654C69.3241 115.848 69.2338 116.087 69.055 116.371C68.6844 116.958 68.1274 117.364 67.3824 117.588V117.588ZM67.5066 117.159C67.7624 117.071 67.9656 116.971 68.1124 116.86C68.3683 116.663 68.5715 116.437 68.722 116.187C68.7766 116.098 68.8048 116.019 68.8048 115.95C68.8048 115.876 68.769 115.839 68.6994 115.839C68.6053 115.839 68.4699 115.91 68.293 116.055C67.9788 116.309 67.7154 116.676 67.5066 117.159ZM71.3899 116.396C71.6627 116.113 71.9355 115.874 72.2102 115.684C72.5602 115.442 72.8104 115.319 72.9628 115.319C73.0249 115.319 73.087 115.346 73.1453 115.397C73.2112 115.455 73.245 115.523 73.245 115.6C73.245 115.699 73.166 115.854 73.008 116.063C72.7032 116.465 72.4718 116.832 72.3137 117.161C72.1745 117.447 72.1049 117.641 72.1049 117.744C72.1049 117.844 72.1519 117.893 72.2479 117.893C72.4473 117.893 72.7803 117.54 73.2507 116.834C73.3466 116.691 73.4332 116.619 73.5103 116.619C73.5875 116.619 73.627 116.665 73.627 116.753C73.627 116.896 73.4859 117.169 73.2074 117.573C72.9647 117.927 72.7107 118.198 72.4473 118.388C72.2592 118.518 72.0898 118.582 71.9393 118.582C71.7794 118.582 71.6665 118.514 71.595 118.379C71.5517 118.294 71.5291 118.2 71.5291 118.098C71.5291 117.771 71.6458 117.398 71.8772 116.981C71.9337 116.881 72.0992 116.599 72.3758 116.132C71.6232 116.51 70.9873 117.329 70.468 118.586C70.4191 118.729 70.3457 118.8 70.2441 118.8C70.1745 118.8 70.1162 118.776 70.0729 118.728C70.0277 118.678 70.0052 118.614 70.0052 118.54C70.0052 118.42 70.1218 118.076 70.357 117.509C70.7935 116.459 71.2018 115.57 71.5799 114.841C71.9581 114.106 72.3777 113.344 72.8386 112.554C72.9497 112.363 73.0362 112.234 73.0983 112.168C73.1623 112.102 73.2281 112.068 73.2996 112.068C73.3655 112.068 73.4238 112.104 73.4708 112.173C73.5084 112.224 73.5273 112.284 73.5273 112.35C73.5273 112.454 73.4689 112.591 73.3504 112.764C72.9553 113.378 72.5602 114.051 72.167 114.787C71.7455 115.573 71.4859 116.11 71.3899 116.396V116.396ZM75.1924 117.735C75.072 117.95 74.9516 118.128 74.8349 118.277C74.6035 118.563 74.374 118.706 74.1463 118.706C73.9469 118.706 73.7926 118.612 73.6835 118.424C73.6139 118.303 73.5781 118.16 73.5781 117.995C73.5781 117.587 73.7061 117.137 73.9638 116.644C74.2517 116.095 74.5979 115.675 75.0024 115.379C75.2658 115.189 75.5217 115.094 75.7681 115.094C75.9224 115.094 76.0522 115.141 76.1557 115.237C76.2442 115.321 76.2874 115.417 76.2874 115.524C76.2874 115.605 76.2554 115.718 76.1934 115.861C76.2498 115.938 76.2761 116.006 76.2761 116.066C76.2761 116.143 76.2253 116.27 76.1219 116.446C76.0165 116.627 75.9093 116.866 75.8039 117.165C75.6891 117.481 75.6327 117.735 75.6327 117.927C75.6327 118.081 75.6778 118.207 75.77 118.307C75.7964 118.333 75.8716 118.375 75.9958 118.435C76.088 118.478 76.135 118.556 76.135 118.667C76.135 118.736 76.1087 118.792 76.0579 118.838C76.0014 118.885 75.9375 118.909 75.8641 118.909C75.6647 118.909 75.4934 118.819 75.3486 118.64C75.23 118.497 75.1698 118.316 75.1698 118.1C75.1698 118.027 75.1774 117.904 75.1924 117.735V117.735ZM75.8829 115.918C75.8396 115.837 75.7907 115.777 75.7399 115.739C75.6872 115.699 75.6327 115.681 75.5743 115.681C75.294 115.681 74.9892 115.925 74.6618 116.416C74.3006 116.958 74.12 117.415 74.12 117.792C74.12 117.884 74.1369 117.953 74.1727 118.002C74.2065 118.049 74.2592 118.074 74.3307 118.074C74.5076 118.074 74.7126 117.886 74.9497 117.509C75.0814 117.304 75.2451 116.999 75.4408 116.599C75.5706 116.337 75.6647 116.164 75.723 116.078C75.7531 116.034 75.8058 115.982 75.8829 115.918V115.918ZM78.5188 115.097C78.2799 115.468 78.056 115.886 77.8528 116.345C77.5612 117.001 77.4144 117.49 77.4144 117.814C77.4144 117.906 77.4332 117.976 77.4727 118.025C77.5104 118.072 77.5687 118.096 77.6458 118.096C77.8302 118.096 78.0541 117.923 78.3156 117.579C78.4812 117.365 78.628 117.152 78.7578 116.939C78.8274 116.817 78.9045 116.757 78.9854 116.757C79.0343 116.757 79.0757 116.774 79.1077 116.806C79.1378 116.84 79.1529 116.873 79.1529 116.905C79.1529 117.041 78.9741 117.346 78.6167 117.816C78.1896 118.379 77.8001 118.661 77.4464 118.661C77.2582 118.661 77.1021 118.574 76.9779 118.401C76.9008 118.292 76.8613 118.134 76.8613 117.933C76.8613 117.487 76.9911 116.969 77.2507 116.377C77.3128 116.23 77.4878 115.874 77.7719 115.312C77.6722 115.34 77.595 115.353 77.5423 115.353C77.4633 115.353 77.3956 115.334 77.3354 115.299C77.2526 115.246 77.2112 115.182 77.2112 115.105C77.2112 115.013 77.2639 114.939 77.3711 114.885C77.4012 114.87 77.5386 114.847 77.7813 114.813C77.8697 114.798 77.9995 114.764 78.1689 114.71C78.2987 114.476 78.5113 114.162 78.8048 113.765C78.9666 113.545 79.0795 113.4 79.1416 113.334C79.23 113.242 79.3072 113.197 79.373 113.197C79.4219 113.197 79.469 113.223 79.516 113.274C79.5612 113.321 79.5837 113.37 79.5837 113.417C79.5837 113.513 79.4803 113.701 79.2752 113.983C79.1378 114.168 79.0381 114.316 78.9704 114.429C79.373 114.322 79.6628 114.269 79.8359 114.269C80.0353 114.269 80.135 114.354 80.135 114.523C80.135 114.608 80.1011 114.67 80.0315 114.712C79.9939 114.732 79.8998 114.751 79.7455 114.766C79.6835 114.762 79.4088 114.832 78.9196 114.971C78.7841 115.013 78.6505 115.054 78.5188 115.097V115.097ZM85.9826 115.603C85.1453 115.769 84.4454 115.965 83.881 116.189C83.5423 116.683 83.1698 117.28 82.7652 117.974L82.4717 118.486C82.4209 118.578 82.3419 118.712 82.2347 118.883C82.1161 119.086 81.9938 119.188 81.864 119.188C81.7944 119.188 81.7361 119.159 81.6872 119.105C81.6401 119.056 81.6157 119.003 81.6157 118.945C81.6157 118.841 81.753 118.55 82.0296 118.068C82.1801 117.807 82.4078 117.438 82.7126 116.96C82.8311 116.776 82.9233 116.625 82.9948 116.508C82.7728 116.57 82.5715 116.642 82.3871 116.723C82.2986 116.762 82.2253 116.783 82.1669 116.783C82.0936 116.783 82.0371 116.751 81.9957 116.683C81.9675 116.644 81.9525 116.597 81.9525 116.54C81.9525 116.416 81.9957 116.328 82.0842 116.277C82.2271 116.189 82.4849 116.087 82.8556 115.974C83.1321 115.886 83.3504 115.805 83.5122 115.731C83.5893 115.635 83.7906 115.355 84.118 114.888C84.2591 114.687 84.6542 114.209 85.309 113.457C85.7794 112.905 86.2648 112.392 86.7652 111.918C87.055 111.639 87.277 111.5 87.4313 111.5C87.5272 111.5 87.61 111.538 87.6796 111.615C87.738 111.684 87.7681 111.761 87.7681 111.846C87.7681 111.95 87.7173 112.13 87.6138 112.386C87.4388 112.84 87.2695 113.321 87.1077 113.837C86.9684 114.292 86.8744 114.642 86.8273 114.885C86.8932 114.885 86.9365 114.883 86.959 114.879C87.0663 114.875 87.1528 114.873 87.2224 114.873C87.435 114.873 87.5423 114.954 87.5423 115.116C87.5423 115.186 87.5197 115.255 87.4746 115.323C87.4275 115.391 87.3767 115.432 87.3165 115.447C87.2958 115.455 87.2356 115.457 87.1359 115.457C86.9271 115.457 86.7728 115.47 86.6693 115.496C86.5809 115.758 86.4416 116.424 86.2516 117.498C86.1519 118.211 86.1049 118.648 86.1086 118.809C86.1086 119.075 86.0296 119.206 85.8697 119.206C85.7455 119.206 85.6477 119.142 85.5762 119.013C85.5254 118.924 85.499 118.806 85.499 118.655C85.499 118.147 85.5912 117.464 85.7737 116.604C85.8678 116.172 85.9374 115.837 85.9826 115.603V115.603ZM86.135 115.009C86.1688 114.902 86.2516 114.617 86.3852 114.153C86.4172 114.032 86.5018 113.792 86.6354 113.432C86.769 113.06 86.8763 112.762 86.9553 112.538C86.7201 112.697 86.4811 112.905 86.2384 113.167C85.373 114.1 84.7615 114.862 84.404 115.455C84.5414 115.421 84.833 115.338 85.2808 115.206C85.4106 115.169 85.6947 115.103 86.135 115.009ZM88.007 116.817C87.896 117.103 87.8132 117.334 87.7586 117.511C87.7041 117.686 87.6758 117.81 87.6758 117.88C87.6758 117.972 87.7191 118.017 87.8075 118.017C87.9392 118.017 88.1105 117.893 88.3193 117.643C88.419 117.521 88.5658 117.302 88.7596 116.986C88.8367 116.86 88.9176 116.798 89.0004 116.798C89.0963 116.798 89.1434 116.843 89.1434 116.936C89.1434 117.094 88.9609 117.413 88.5978 117.895C88.2196 118.397 87.8696 118.649 87.546 118.649C87.4068 118.649 87.2939 118.591 87.2055 118.473C87.1434 118.388 87.1114 118.286 87.1114 118.164C87.1114 117.959 87.1735 117.675 87.2995 117.312C87.4237 116.949 87.61 116.506 87.8565 115.985C88.4886 114.659 89.134 113.568 89.7925 112.708C90.3174 112.017 90.7539 111.673 91.1001 111.673C91.2092 111.673 91.2995 111.714 91.3692 111.799C91.4425 111.884 91.4802 111.982 91.4802 112.091C91.4802 112.606 91.0211 113.46 90.1011 114.657C89.6909 115.19 89.1979 115.722 88.6241 116.254C88.4736 116.394 88.2685 116.582 88.007 116.817V116.817ZM88.3964 115.95C89.1603 115.295 89.8452 114.469 90.4472 113.468C90.7596 112.951 90.9157 112.606 90.9157 112.437C90.9157 112.356 90.88 112.317 90.8104 112.317C90.609 112.317 90.2422 112.719 89.7078 113.524C89.2676 114.185 88.8311 114.994 88.3964 115.95ZM91.1396 117.735C91.0192 117.95 90.8988 118.128 90.7821 118.277C90.5507 118.563 90.3212 118.706 90.0935 118.706C89.8941 118.706 89.7398 118.612 89.6307 118.424C89.5611 118.303 89.5253 118.16 89.5253 117.995C89.5253 117.587 89.6533 117.137 89.911 116.644C90.1989 116.095 90.5451 115.675 90.9496 115.379C91.213 115.189 91.4689 115.094 91.7153 115.094C91.8696 115.094 91.9994 115.141 92.1029 115.237C92.1914 115.321 92.2346 115.417 92.2346 115.524C92.2346 115.605 92.2026 115.718 92.1406 115.861C92.197 115.938 92.2233 116.006 92.2233 116.066C92.2233 116.143 92.1725 116.27 92.0691 116.446C91.9637 116.627 91.8565 116.866 91.7511 117.165C91.6363 117.481 91.5799 117.735 91.5799 117.927C91.5799 118.081 91.625 118.207 91.7172 118.307C91.7436 118.333 91.8188 118.375 91.943 118.435C92.0352 118.478 92.0822 118.556 92.0822 118.667C92.0822 118.736 92.0559 118.792 92.0051 118.838C91.9486 118.885 91.8847 118.909 91.8113 118.909C91.6119 118.909 91.4406 118.819 91.2958 118.64C91.1772 118.497 91.117 118.316 91.117 118.1C91.117 118.027 91.1246 117.904 91.1396 117.735V117.735ZM91.8301 115.918C91.7868 115.837 91.7379 115.777 91.6871 115.739C91.6344 115.699 91.5799 115.681 91.5215 115.681C91.2412 115.681 90.9364 115.925 90.609 116.416C90.2478 116.958 90.0672 117.415 90.0672 117.792C90.0672 117.884 90.0841 117.953 90.1199 118.002C90.1537 118.049 90.2064 118.074 90.2779 118.074C90.4548 118.074 90.6598 117.886 90.8969 117.509C91.0286 117.304 91.1923 116.999 91.388 116.599C91.5178 116.337 91.6119 116.164 91.6702 116.078C91.7003 116.034 91.753 115.982 91.8301 115.918V115.918ZM93.3842 116.809C93.6927 116.486 93.9637 116.232 94.2007 116.049C94.5582 115.773 94.7972 115.635 94.9176 115.635C94.9778 115.635 95.0286 115.658 95.0737 115.701C95.1133 115.741 95.1339 115.786 95.1339 115.833C95.1339 115.903 95.07 116.015 94.9402 116.173C94.7426 116.422 94.6053 116.634 94.5281 116.809C95.3898 115.951 95.9787 115.523 96.2967 115.523C96.3625 115.523 96.419 115.543 96.4679 115.583C96.5187 115.628 96.545 115.683 96.545 115.748C96.545 115.852 96.466 115.983 96.3061 116.145C95.6081 116.862 95.2581 117.451 95.2581 117.91C95.2581 118.098 95.2901 118.232 95.356 118.313L95.4971 118.495C95.5253 118.527 95.5403 118.571 95.5403 118.621C95.5403 118.68 95.5159 118.736 95.4688 118.787C95.4143 118.845 95.3522 118.875 95.2826 118.875C95.1622 118.875 95.0512 118.798 94.9477 118.642C94.8235 118.458 94.7614 118.239 94.7614 117.989C94.7614 117.652 94.8574 117.314 95.0474 116.969C95.1151 116.847 95.2243 116.685 95.3785 116.482C95.0662 116.719 94.7501 117.045 94.4265 117.459C94.2083 117.739 94.0107 118.053 93.8357 118.399C93.7511 118.567 93.6514 118.649 93.5385 118.649C93.4124 118.649 93.3503 118.58 93.3503 118.439C93.3503 118.288 93.4538 117.976 93.6589 117.504C93.7774 117.235 93.9223 116.951 94.0954 116.651C93.467 117.139 92.9947 117.799 92.6786 118.633C92.5996 118.817 92.498 118.909 92.3682 118.909C92.3099 118.909 92.2628 118.887 92.2252 118.843C92.1857 118.798 92.165 118.745 92.165 118.683C92.165 118.465 92.2854 118.074 92.5281 117.508C92.7802 116.907 93.0662 116.367 93.3842 115.889C93.6043 115.554 93.7755 115.387 93.8959 115.387C94.0069 115.387 94.0615 115.445 94.0615 115.564C94.0615 115.615 93.9938 115.743 93.8583 115.95C93.6194 116.335 93.4613 116.621 93.3842 116.809V116.809Z" fill="#00A859"/>
<path d="M97.894 115.342C97.9561 115.342 98.0069 115.366 98.0483 115.413C98.0765 115.455 98.0916 115.494 98.0916 115.536C98.0916 115.602 98.0389 115.711 97.9317 115.867C97.5516 116.458 97.2788 116.945 97.1189 117.327C96.9458 117.72 96.7934 118.125 96.6617 118.54C96.6033 118.725 96.5112 118.817 96.387 118.817C96.3136 118.817 96.2553 118.787 96.2101 118.729C96.1706 118.682 96.1499 118.629 96.1499 118.574C96.1499 118.463 96.2666 118.096 96.5018 117.472C96.6861 116.979 96.9815 116.433 97.3936 115.839C97.5253 115.643 97.625 115.513 97.6908 115.447C97.7567 115.378 97.8244 115.342 97.894 115.342ZM98.9382 113.299C99.1038 113.299 99.1866 113.383 99.1866 113.553C99.1866 113.707 99.1057 113.878 98.9439 114.066C98.7896 114.247 98.641 114.337 98.498 114.337C98.4284 114.337 98.3719 114.311 98.3268 114.26C98.2835 114.211 98.2609 114.153 98.2609 114.083C98.2609 113.906 98.3588 113.718 98.5525 113.519C98.6955 113.372 98.8254 113.299 98.9382 113.299V113.299Z" fill="#00A859"/>
</svg>
