<svg id="Layer_1" enable-background="new 0 0 480 480" height="512" viewBox="0 0 480 480" width="512" xmlns="http://www.w3.org/2000/svg"><path d="m331 177.071v33.054c0 50.477-41.31 91.486-91.897 90.996-50.098-.486-90.103-42.056-90.103-92.156 0-34.683-.021-32.708.054-34.601.132-3.374 2.417-6.275 5.638-7.287 45.883-14.41 95.482-17.199 144.131-6.936 4.494.946 8.895-2.072 9.57-6.684.616-4.204-2.33-8.145-6.489-9.018-41.612-8.743-86.017-8.859-129.954 1.36-7.374 1.715-12.757-6.698-8.156-12.711 11.917-15.575 30.131-26.135 51.263-27.994 16.513-1.451 33.368-1.451 49.885 0 37.66 3.313 66.058 34.257 66.058 71.977zm65.32 252.949c-64.402 41.795-150.367 19.737-219.3-14.06-41.866-20.388-69.02-63.113-69.02-110.49v-172.019c0-72.844 58.399-133.038 131.242-133.449 73.137-.412 132.758 58.956 132.758 131.998l.009 195.974c0 5.85-6.068 9.629-11.38 7.18-10.183-4.695-21.149-7.622-32.52-8.607-4.908-.425-9.092 3.681-8.65 8.705.344 3.916 3.631 6.907 7.546 7.261 16.605 1.501 32.174 7.932 45.006 18.568v.03c18.24 15.109 29.46 37.449 29.94 60.06.199 5.395-2.57 6.899-5.631 8.849zm-49.32-219.285v-33.663c0-45.843-35.081-83.907-80.655-87.916-17.504-1.538-35.172-1.541-52.689.001-45.847 4.03-80.656 42.356-80.656 87.914 0 .179-.002 33.714.003 33.893.454 58.614 48.278 106.161 106.997 106.161 59.931 0 107-49.179 107-106.39zm-190.344 212.148c-19.463-12.288-35.585-29.223-46.932-49.482-2.666-4.761-9.29-5.421-12.758-1.208-12 14.571-18.966 33.11-18.966 52.547v15.479c0 4.025 3.077 7.351 7.083 7.742 24.657 2.407 49.092-.828 70.847-11.521 5.465-2.685 5.874-10.306.726-13.557zm24.453 17.057c-27.569 19.817-60.476 27.204-94.668 24.324-4.539-.382-8.441 3.178-8.441 7.734 0 4.424 3.585 8.001 8 8.001h308c4.418 0 8-3.582 8-8v-13.595c0-5.732-6.019-9.541-11.155-6.993-62.436 30.966-136.983 16.556-202.017-12.261-2.535-1.123-5.467-.828-7.719.79z"/></svg>